<svg xmlns="http://www.w3.org/2000/svg" xmlns:xlink="http://www.w3.org/1999/xlink" width="780" height="5271" viewBox="0 0 780 5271"><svg width="752" height="471" viewBox="0 0 752 471" id="amex" y="0"><title>Slice 1</title><path fill="#2557D6" d="M554.594 130.608l-14.52 35.04h29.12l-14.6-35.04zM387.03 152.32c2.738-1.42 4.35-4.514 4.35-8.355 0-3.764-1.694-6.49-4.432-7.77-2.492-1.42-6.328-1.585-10.006-1.585h-25.978v19.523h25.63c4.106 0 7.537-.06 10.436-1.812zM54.142 130.61l-14.357 35.04h28.8l-14.443-35.04zM722.565 355.08h-40.742v-18.852H722.4c4.024 0 6.84-.525 8.538-2.177 1.47-1.357 2.494-3.335 2.494-5.732 0-2.562-1.023-4.596-2.578-5.813-1.53-1.342-3.76-1.953-7.434-1.953-19.81-.67-44.523.61-44.523-27.21 0-12.75 8.13-26.173 30.27-26.173h42.025v-17.493h-39.045c-11.783 0-20.344 2.81-26.406 7.18v-7.18h-57.75c-9.234 0-20.075 2.28-25.202 7.18v-7.18H499.655v7.18c-8.207-5.897-22.057-7.18-28.447-7.18H403.18v7.18c-6.492-6.26-20.935-7.18-29.734-7.18h-76.134l-17.42 18.775-16.318-18.775H149.847v122.675h111.586l17.95-19.076 16.91 19.076 68.78.06v-28.86h6.764c9.125.145 19.89-.223 29.387-4.31v33.106h56.73v-31.976h2.737c3.493 0 3.84.146 3.84 3.62v28.35h172.343c10.94 0 22.38-2.787 28.712-7.854v7.853h54.668c11.375 0 22.485-1.587 30.938-5.652v-22.853c-5.12 7.462-15.11 11.245-28.625 11.245zm-349.83-28.967h-26.326V355.6h-41.007l-25.978-29.1-26.997 29.102h-83.57v-87.914h84.856l25.955 28.818 26.834-28.818h67.414c16.743 0 35.555 4.617 35.555 28.963 0 24.422-18.297 29.463-36.74 29.463zm126.588-3.986c2.98 4.29 3.41 8.297 3.496 16.047v17.428h-21.183v-10.998c0-5.29.512-13.12-3.41-17.21-3.08-3.148-7.78-3.9-15.48-3.9h-22.545v32.108h-21.198v-87.914h48.706c10.685 0 18.462.472 25.386 4.148 6.658 4.006 10.848 9.494 10.848 19.523-.002 14.03-9.4 21.19-14.953 23.388 4.694 1.725 8.532 4.818 10.333 7.38zm87.15-36.258H537.07v15.98h48.196v17.94H537.07v17.49l49.403.08v18.24H516.06v-87.913h70.413v18.182zm54.213 69.73h-41.09v-18.852h40.926c4.002 0 6.84-.527 8.62-2.178 1.448-1.36 2.49-3.336 2.49-5.73 0-2.564-1.128-4.598-2.573-5.818-1.616-1.34-3.843-1.948-7.515-1.948-19.73-.673-44.44.606-44.44-27.212 0-12.752 8.048-26.174 30.165-26.174h42.297v18.71h-38.703c-3.836 0-6.33.145-8.45 1.59-2.314 1.424-3.17 3.536-3.17 6.323 0 3.317 1.962 5.575 4.614 6.55 2.228.77 4.617.996 8.21.996l11.36.308c11.45.274 19.313 2.25 24.092 7.07 4.105 4.23 6.31 9.577 6.31 18.624 0 18.913-11.867 27.742-33.144 27.742zm110.506-11.762zm-274.13-56.55c-2.55-1.51-6.312-1.59-10.067-1.59h-25.98v19.745h25.632c4.104 0 7.594-.144 10.414-1.812 2.735-1.645 4.372-4.677 4.372-8.437s-1.637-6.482-4.37-7.906zm235.722-1.59c-3.838 0-6.39.144-8.537 1.587-2.227 1.426-3.08 3.537-3.08 6.326 0 3.316 1.878 5.573 4.61 6.55 2.23.77 4.616.996 8.13.996l11.437.303c11.537.284 19.242 2.26 23.938 7.08.855.667 1.37 1.42 1.957 2.173V285.7h-38.454l-.002-.003zm-339.314 0h-27.51v22.39h27.266c8.105 0 13.146-4.006 13.15-11.61-.004-7.69-5.29-10.78-12.906-10.78zm-183.598 0v15.983h46.315v17.94h-46.315v17.49h51.87l24.1-25.792-23.076-25.62h-52.894zm135.45 61.478v-70.482l-32.392 34.673 32.39 35.81zm-133.673-141.15v15.147H367.91l-.082-32.046h3.41c2.39.083 3.085.302 3.085 4.23v27.817h91.164v-7.46c7.352 3.923 18.788 7.46 33.837 7.46h38.353l8.21-19.522h18.196l8.026 19.522h73.906V202.63l11.19 18.543h59.226V98.59h-58.61v14.477l-8.208-14.477h-60.143v14.477l-7.537-14.477h-81.24c-13.6 0-25.55 1.89-35.207 7.158V98.59h-56.064v7.158c-6.146-5.43-14.52-7.158-23.826-7.158H180.784l-13.742 31.662-14.114-31.662h-64.51v14.477l-7.09-14.477H26.313L.762 156.874v46.62l37.78-87.893h31.346l35.88 83.218V115.6h34.435l27.61 59.626 25.365-59.625h35.126v87.895H206.68l-.08-68.837-30.593 68.837h-18.524l-30.67-68.898v68.898H83.898l-8.107-19.605H31.865l-8.19 19.605H.762v17.682h36.05l8.127-19.523h18.197l8.106 19.523h70.925V206.25l6.33 14.99h36.82l6.33-15.215zm277.75-80.177c6.82-7.016 17.5-10.25 32.04-10.25h20.424v18.832h-19.996c-7.696 0-12.047 1.14-16.233 5.208-3.6 3.7-6.066 10.696-6.066 19.908 0 9.417 1.88 16.206 5.8 20.64 3.248 3.48 9.152 4.534 14.705 4.534h9.478l29.733-69.12h31.61l35.72 83.134v-83.133h32.123l37.085 61.213v-61.213h21.61v87.89H667.54l-39.99-65.967v65.968h-42.967l-8.208-19.605h-43.827l-7.966 19.604h-24.69c-10.253 0-23.237-2.258-30.59-9.722-7.415-7.462-11.27-17.57-11.27-33.553-.004-13.038 2.3-24.954 11.37-34.37zm-43.394-10.25h21.526v87.894h-21.526V115.6zm-97.055 0h48.526c10.78 0 18.727.285 25.547 4.21 6.674 3.926 10.676 9.658 10.676 19.46 0 14.015-9.394 21.254-14.865 23.43 4.614 1.75 8.56 4.84 10.438 7.4 2.98 4.372 3.492 8.277 3.492 16.126v17.267h-21.28l-.08-11.084c0-5.29.51-12.897-3.33-17.123-3.08-3.09-7.78-3.763-15.378-3.763H350.05v31.97h-21.098V115.6zm-85.048 0h70.48v18.303H265v15.843h48.193v18.017h-48.193v17.553h49.38v18.177H243.9V115.6z"/></svg>
<svg width="750" height="471" viewBox="0 0 750 471" id="diners" y="471"><title>diners</title><path fill="#0079BE" d="M584.934 236.947c0-99.416-82.98-168.133-173.896-168.1h-78.24c-92.004-.033-167.73 68.705-167.73 168.1 0 90.93 75.728 165.64 167.73 165.203h78.24c90.913.437 173.896-74.293 173.896-165.203z"/><path fill="#FFF" d="M333.28 82.932c-84.068.026-152.192 68.308-152.214 152.58.02 84.258 68.145 152.532 152.215 152.56 84.09-.027 152.23-68.302 152.24-152.56-.012-84.274-68.15-152.554-152.24-152.58z"/><path fill="#0079BE" d="M237.066 235.098c.08-41.18 25.747-76.296 61.94-90.25v180.48c-36.193-13.947-61.86-49.045-61.94-90.23zm131 90.275V144.848c36.208 13.92 61.915 49.057 61.98 90.256-.065 41.212-25.772 76.322-61.98 90.27z"/></svg>
<svg width="780" height="501" viewBox="0 0 780 501" id="discover" y="942"><title>discover</title><path fill="#F47216" d="M409.412 197.758c30.938 0 56.02 23.58 56.02 52.71v.032c0 29.13-25.082 52.742-56.02 52.742-30.94 0-56.022-23.613-56.022-52.742v-.033c0-29.13 25.08-52.71 56.022-52.71z"/><path d="M321.433 198.438c8.836 0 16.247 1.785 25.27 6.09v22.752c-8.545-7.863-15.956-11.154-25.758-11.154-19.265 0-34.413 15.015-34.413 34.05 0 20.075 14.68 34.196 35.368 34.196 9.313 0 16.586-3.12 24.802-10.856v22.764c-9.343 4.14-16.912 5.775-25.757 5.775-31.277 0-55.58-22.597-55.58-51.737-.002-28.828 24.95-51.88 56.068-51.88zM224.32 199.064c11.546 0 22.11 3.72 30.942 10.994l-10.748 13.248c-5.35-5.646-10.41-8.027-16.563-8.027-8.853 0-15.3 4.744-15.3 10.987 0 5.354 3.618 8.188 15.944 12.482 23.364 8.042 30.29 15.175 30.29 30.925 0 19.193-14.977 32.554-36.32 32.554-15.63 0-26.993-5.796-36.457-18.872l13.268-12.03c4.73 8.608 12.622 13.222 22.42 13.222 9.163 0 15.947-5.95 15.947-13.984 0-4.164-2.056-7.733-6.158-10.258-2.066-1.195-6.158-2.977-14.2-5.646-19.29-6.538-25.91-13.527-25.91-27.186 0-16.226 14.214-28.412 32.846-28.412zM459.043 200.793h22.436l28.083 66.592 28.447-66.592h22.266L514.783 302.48H503.73M157.83 200.945h20.54v99.143h-20.54M569.563 200.945h58.252v16.8H590.09v22.005h36.336v16.79H590.09v26.763h37.725v16.785h-58.252M685.156 258.322c15.47-2.965 23.984-12.926 23.984-28.105 0-18.562-13.576-29.27-37.266-29.27H641.42v99.142h20.516v-39.83h2.68l28.43 39.828h25.26l-33.15-41.766zm-17.218-11.736h-6.002V216.56h6.326c12.79 0 19.744 5.05 19.744 14.698.002 9.966-6.95 15.328-20.068 15.328zM91.845 200.945h-30.15v99.143H91.69c15.946 0 27.465-3.543 37.573-11.445 12.015-9.36 19.118-23.467 19.118-38.057 0-29.26-23.22-49.64-56.533-49.64zm23.997 74.48c-6.454 5.483-14.837 7.878-28.108 7.878H82.22v-65.56h5.513c13.27 0 21.323 2.24 28.108 8.02 7.105 5.955 11.378 15.182 11.378 24.68 0 9.514-4.273 19.025-11.376 24.98z"/></svg>
<svg width="780" height="501" viewBox="0 0 780 501" id="elo" y="1443"><title>amex-outline</title><path fill="#231F20" d="M373.55 32.85h32.186c.237.758.88.624 1.45.666 26.653 1.98 52.162 8.602 75.86 20.856 65.348 33.792 104.212 87.052 115.98 159.866.71 4.382.468 8.903 1.973 13.16v33.617c-.93.32-.66 1.135-.723 1.795-2.6 28.048-9.97 54.77-23.57 79.463-34.266 62.21-86.506 99.182-156.74 110.553-4.736.767-9.602.57-14.233 2.023h-32.902c-.425-1.094-1.403-.66-2.153-.73-28.17-2.67-55.02-10.123-79.754-23.874-61.92-34.425-98.757-86.662-109.96-156.794-.663-4.144-.324-8.45-1.97-12.436V225.97c1.163-.36.695-1.38.772-2.103.998-9.348 2.386-18.635 4.523-27.793 19.866-85.106 89.722-149.02 176.108-161.262 4.387-.62 8.9-.45 13.152-1.962zM237.973 245.5c.148 14.256 2.83 24.612 8.31 34.25 1.167 2.054 2.055 2.754 4.61 1.65 35.158-15.17 70.37-30.218 105.617-45.18 2.622-1.113 3.235-2.14 2.387-4.957-8.79-29.194-37.84-48.055-67.512-43.67-30.898 4.568-53.393 30.305-53.412 57.906zm132.83-24.542c0 18.71.008 37.417-.003 56.126-.007 11.567 3.99 20.692 15.348 25.383 5.714 2.36 11.44 4.69 17.115 7.142 1.606.693 2.436.635 3.153-1.18 2.577-6.523 5.245-13.012 8.038-19.444.752-1.732.576-2.413-1.244-3.118-5.318-2.06-10.505-4.46-15.84-6.475-2.18-.824-2.753-2.015-2.73-4.225.11-10.485.05-20.972.05-31.46 0-26.93-.042-53.86.06-80.792.012-2.76-.63-3.662-3.498-3.54-5.71.242-11.442.218-17.154.007-2.644-.098-3.383.572-3.364 3.304.13 19.423.07 38.847.07 58.27zm109.567 89.397c3.195.122 6.498-.22 9.813-.692 24-3.415 45.155-23.165 50.23-46.88.35-1.634.537-2.704-1.55-3.07-7.03-1.234-14.06-2.498-21.056-3.916-1.835-.372-2.262.32-2.616 1.85-.7 3.024-1.848 5.896-3.38 8.612-8.125 14.4-23.643 21.125-40.2 17.23-2.515-.59-3.593-.12-4.36 2.403-1.87 6.147-3.913 12.25-6.144 18.274-.932 2.518-.093 3.36 2.178 3.93 5.566 1.393 11.162 2.465 17.086 2.258zm-40.69-107.81c-.82.7-1.555 1.283-2.236 1.92-25.327 23.733-24.964 65.825.706 89.364 1.527 1.4 2.342 1.4 3.644-.18 4.166-5.05 8.34-10.104 12.757-14.934 1.87-2.044 1.65-3.22-.11-5.182-13.835-15.423-13.598-35.025.58-50.11 1.42-1.513 1.287-2.33.002-3.733-4.665-5.088-9.214-10.284-13.807-15.44-.474-.53-.952-1.057-1.536-1.706zm40.265-15.347c-5.705-.253-11.88.89-17.977 2.682-1.763.518-2.217 1.195-1.533 3.042 2.435 6.582 4.722 13.22 6.977 19.866.545 1.605 1.21 1.85 2.854 1.354 18.672-5.646 38.994 4.996 44.693 24.62.71 2.452 1.763 2.61 3.758 2.173 6.163-1.347 12.31-2.82 18.527-3.846 3.09-.51 3.47-1.6 2.703-4.416-7.31-26.87-31.498-45.474-60.003-45.476zm-175.51 123.2c10.323-.063 23.71-5.052 35.437-14.774 2.372-1.967 3.04-3.194.478-5.61-4.757-4.49-9.216-9.3-13.726-14.045-1.107-1.166-1.79-1.343-3.157-.218-12.705 10.455-26.483 12.04-41.153 4.53-1.76-.9-2.388-.535-3.29.944-3.53 5.787-7.078 11.565-10.81 17.22-1.284 1.944-1.155 2.822.94 3.967 9.483 5.18 19.544 7.993 35.282 7.985z"/><path fill="#FCFCFC" d="M237.973 245.5c.02-27.602 22.515-53.34 53.412-57.906 29.672-4.386 58.722 14.474 67.512 43.67.848 2.815.235 3.843-2.387 4.956-35.247 14.963-70.458 30.01-105.616 45.18-2.556 1.104-3.444.404-4.61-1.65-5.48-9.64-8.164-19.994-8.31-34.25zm88.867-20.112c-9.027-11.29-24.948-15.59-38.977-10.758-14.286 4.92-24.227 18.69-24.3 33.663-.022 4.168-.017 4.18 3.7 2.595 13.983-5.958 27.965-11.916 41.94-17.89 5.858-2.504 11.7-5.047 17.637-7.61zM370.803 220.958c0-19.424.06-38.848-.07-58.27-.018-2.733.72-3.403 3.364-3.305 5.712.21 11.445.235 17.154-.007 2.868-.12 3.51.78 3.5 3.54-.103 26.93-.062 53.862-.062 80.793 0 10.485.06 20.972-.05 31.458-.022 2.21.55 3.4 2.732 4.225 5.334 2.014 10.52 4.414 15.84 6.475 1.82.705 1.995 1.386 1.243 3.118-2.793 6.432-5.46 12.92-8.038 19.443-.717 1.815-1.548 1.872-3.153 1.18-5.674-2.453-11.402-4.783-17.115-7.143-11.357-4.69-15.354-13.816-15.348-25.383.01-18.708.003-37.417.003-56.126z"/><path fill="#EC4324" d="M480.37 310.355c-5.924.207-11.52-.865-17.086-2.26-2.27-.57-3.11-1.41-2.178-3.93 2.23-6.024 4.275-12.126 6.144-18.273.767-2.522 1.845-2.993 4.36-2.402 16.557 3.894 32.075-2.832 40.2-17.232 1.532-2.716 2.68-5.588 3.38-8.613.355-1.527.782-2.22 2.617-1.85 6.997 1.42 14.025 2.683 21.057 3.917 2.086.366 1.898 1.436 1.55 3.07-5.076 23.715-26.232 43.464-50.23 46.88-3.316.473-6.62.814-9.814.693z"/><path fill="#02A3DD" d="M439.68 202.544c.583.65 1.06 1.176 1.534 1.707 4.593 5.156 9.14 10.352 13.807 15.44 1.286 1.403 1.42 2.22-.002 3.733-14.177 15.086-14.414 34.688-.58 50.11 1.762 1.964 1.98 3.138.112 5.183-4.416 4.83-8.592 9.883-12.757 14.935-1.302 1.58-2.117 1.58-3.644.18-25.67-23.54-26.033-65.632-.707-89.364.682-.638 1.416-1.22 2.236-1.922z"/><path fill="#FCEF03" d="M479.945 187.198c28.505.002 52.694 18.606 60.003 45.477.766 2.818.388 3.906-2.703 4.415-6.218 1.025-12.364 2.498-18.527 3.846-1.996.436-3.048.28-3.76-2.172-5.698-19.625-26.02-30.268-44.692-24.62-1.644.496-2.31.25-2.854-1.355-2.255-6.647-4.542-13.286-6.977-19.867-.684-1.847-.23-2.524 1.533-3.042 6.097-1.792 12.272-2.935 17.977-2.682z"/><path fill="#FCFCFC" d="M304.436 310.398c-15.74.007-25.8-2.806-35.282-7.985-2.096-1.145-2.225-2.023-.942-3.967 3.733-5.655 7.283-11.434 10.81-17.22.903-1.48 1.53-1.845 3.29-.944 14.67 7.51 28.45 5.924 41.154-4.53 1.367-1.125 2.05-.947 3.157.217 4.51 4.745 8.97 9.553 13.726 14.043 2.56 2.418 1.893 3.645-.48 5.61-11.724 9.724-25.112 14.712-35.434 14.775z"/><path fill="#231F20" d="M326.84 225.388c-5.936 2.563-11.78 5.106-17.638 7.61-13.975 5.975-27.957 11.934-41.94 17.89-3.716 1.585-3.72 1.573-3.7-2.594.073-14.972 10.014-28.742 24.3-33.663 14.03-4.833 29.95-.533 38.978 10.758z"/></svg>
<svg width="752" height="471" viewBox="0 0 752 471" id="hipercard" y="1944"><title>Slice 1</title><g fill="#B2131B"><path d="M435.684 70h2.07c42.86-.012 85.72-.016 128.58-.038 44.617-.023 89.233-.063 133.85-.095l44.992-.03c2.814 0 2.844.007 2.27 2.795-1.898 9.2-3.835 18.394-5.725 27.597-5.972 29.08-11.926 58.166-17.895 87.25-5.83 28.406-11.67 56.81-17.506 85.218-4.954 24.112-10.017 48.2-14.813 72.344-2.55 12.83-8.373 23.713-18.257 32.237-6.185 5.333-13.494 8.875-21.253 11.338-11.057 3.51-22.392 5.298-34.03 5.295-93.19-.02-186.377.01-279.564.028-69.906.014-139.813.03-209.72.048-41.04.01-82.08.03-123.12.045-2.812 0-2.84-.006-2.274-2.774 2.644-12.95 5.313-25.893 7.958-38.84 5.967-29.212 11.92-58.426 17.89-87.636 6.597-32.278 13.19-64.556 19.82-96.827 3.34-16.258 6.822-32.486 10.13-48.75C63.72 96.405 78.123 82.61 99.535 75.43c10.685-3.58 21.7-5.37 33.053-5.36 78.69.06 157.383.003 236.074-.013 22.34-.005 44.68 0 67.02 0V70zm-49.568 142.468c-.045-.044-.09-.09-.132-.134.63-3.573 1.223-7.153 1.915-10.714.22-1.14.054-1.557-1.223-1.53-3.762.076-7.53.097-11.29-.01-1.332-.04-1.504.563-1.652 1.62-2.013 14.46-4.403 28.858-7.014 43.217-1.915 10.535-4.064 21.027-6.155 31.53-.294 1.477-.128 2.095 1.634 2.036 4.135-.138 8.28-.105 12.418-.01 1.35.032 1.815-.32 1.932-1.705 1.066-12.632 3.475-25.06 5.8-37.5 1.34-7.17 2.958-14.263 7.512-20.227 4.038-5.288 8.86-9.092 16.093-8.54 2.437.185 4.874.118 7.194 1.02.77.3 1.27.278 1.436-.736.507-3.09 1.092-6.165 1.63-9.248.084-.477.252-1.03-.408-1.278-2.943-1.1-5.97-2.244-9.11-1.934-7.017.693-12.682 3.983-16.99 9.624-1.17 1.526-2.12 3.235-3.592 4.52zm190.934-.342c-.056-.057-.112-.114-.17-.17.562-3.458 1.084-6.92 1.704-10.367.22-1.225-.18-1.516-1.346-1.496-3.575.06-7.153.08-10.727-.008-1.333-.033-1.787.325-1.987 1.716-1.942 13.52-4.086 27.01-6.565 40.44-2.148 11.64-4.45 23.25-6.754 34.86-.243 1.226.113 1.36 1.15 1.352 4.58-.036 9.16-.033 13.74 0 .91.005 1.418-.162 1.348-1.227-.276-4.174.618-8.238 1.285-12.314 1.973-12.046 3.305-24.227 6.862-35.957 2.466-8.134 7.156-14.556 15.253-18 .396-.17.83-.397 1.233-.376 3.972.214 8.035-.68 11.895.946.903.38 1.436.164 1.495-.918.165-3.017.873-5.948 1.537-8.877.236-1.038-.105-1.373-1.025-1.758-2.956-1.236-6-1.66-9.177-1.462-4.877.3-9.064 2.222-12.653 5.432-2.704 2.416-4.95 5.266-7.097 8.184zm-453.82.733c-.002.198-.003.397-.003.596-8.025-.21-16.05-.448-24.076-.6-1.61-.03-1.102-.98-.96-1.75 2.536-13.732 5.075-27.466 7.677-41.186.247-1.3-.145-1.463-1.28-1.452-5.143.047-10.288.053-15.432-.004-1.13-.012-1.493.39-1.663 1.462-1.585 9.96-3.294 19.903-4.83 29.87-2.732 17.71-5.847 35.35-9.346 52.922-1.54 7.74-3.045 15.486-4.548 23.232-.482 2.483-.456 2.49 2.01 2.49 4.832 0 9.664-.045 14.493.03 1.198.018 1.635-.382 1.812-1.512.86-5.51 1.75-11.013 2.688-16.51 1.992-11.67 4.028-23.332 6.027-35 .202-1.18.57-1.79 2.01-1.784 15.495.063 30.992.057 46.49.012 1.564-.005 1.906.436 1.613 1.964-2.132 11.134-4.197 22.28-6.26 33.428-1.084 5.85-2.105 11.714-3.196 17.563-.24 1.294-.117 1.886 1.486 1.85 5.08-.11 10.163-.064 15.245-.02 1.04.008 1.547-.196 1.736-1.368 2.084-12.863 4.206-25.72 6.366-38.57 3.84-22.855 8.057-45.642 12.535-68.38.327-1.655-.185-1.69-1.477-1.675-4.642.056-9.285.022-13.928.022-2.753 0-2.754 0-3.25 2.797-.154.863-.3 1.728-.446 2.593-2.114 12.476-4.437 24.918-6.222 37.45-.16 1.132-.518 1.57-1.75 1.56-7.84-.06-15.68-.03-23.52-.03zM652.38 266.41c-.48 3.877-.873 7.285-1.345 10.683-.128.923-.074 1.376 1.042 1.363 4.138-.05 8.28-.05 12.418 0 1.065.014 1.237-.46 1.222-1.36-.025-1.503-.05-3.017.095-4.51 2.17-22.41 6.308-44.52 10.4-66.63 2.345-12.684 4.84-25.34 7.296-38 .24-1.232.104-1.794-1.384-1.762-4.326.093-8.656.065-12.983.01-1.064-.014-1.567.21-1.7 1.378-1.225 10.773-3.272 21.42-4.924 32.13-.188 1.214-.396 1.61-1.716 1.132-5.43-1.968-11.15-2.623-16.827-2.515-7.15.137-14.125 1.45-20.62 4.906-7.242 3.852-12.563 9.493-16.36 16.59-4.833 9.04-7.844 18.656-8.45 28.968-.388 6.564-.133 13.015 2.525 19.16 1.646 3.806 4.26 6.795 7.938 8.698 7.607 3.936 15.707 4.31 23.992 3.03 5.37-.83 10.287-2.626 14.214-6.6 1.858-1.883 3.185-4.16 5.166-6.67zM227.88 207.718c.456-2.273.813-4.112 1.197-5.945.23-1.1.15-1.733-1.31-1.69-3.637.104-7.28.088-10.917.002-1.182-.028-1.49.48-1.65 1.48-1.372 8.6-2.778 17.196-4.164 25.795-3.16 19.61-6.737 39.144-10.395 58.665-1.614 8.62-3.32 17.222-5.013 25.826-.223 1.135-.137 1.668 1.273 1.64 4.39-.09 8.785-.086 13.176-.003 1.332.025 1.767-.468 1.826-1.7.063-1.314.225-2.626.425-3.927 1.447-9.414 2.886-18.83 4.39-28.234.488-3.043.736-6.136 1.576-9.248.86.693 1.06 1.593 1.565 2.283 1.847 2.53 3.78 4.882 6.843 6.17 4.304 1.812 8.74 2.07 13.272 1.733 10.845-.806 20.1-4.812 27.13-13.412 6.524-7.983 9.805-17.403 12.003-27.237 1.814-8.117 2.648-16.307.22-24.538-2.377-8.05-7.5-13.32-15.522-15.56-9.808-2.738-19.332-1.76-28.45 2.867-2.58 1.31-4.812 3.137-7.474 5.036zm296.802 58.824c-.07.616-.133 1.234-.215 1.85-.372 2.797-.648 5.6-.75 8.425-.04 1.11.108 1.7 1.492 1.66 3.634-.11 7.276-.092 10.913-.007 1.213.03 1.452-.417 1.473-1.502.06-3.072.003-6.17.394-9.207 1.343-10.438 3.143-20.808 4.904-31.185 1.348-7.944 3.57-15.762 3.257-23.96-.177-4.673-2.343-7.967-6.195-10.186-6.67-3.844-14.152-4.01-21.523-4.06-8.525-.056-16.954 1.8-25.5 1.735-.822-.006-1.218.23-1.41 1.093-.778 3.48-1.618 6.95-2.483 10.41-.273 1.086-.062 1.3 1.06 1.028 3.405-.824 6.823-1.62 10.266-2.27 7.6-1.433 15.245-2.5 22.907-.573 4.326 1.088 8.064 3.54 7.628 9.25-.186 2.453-.633 4.834-1.024 7.24-.176 1.083-.61 1.533-1.828 1.518-5.143-.064-10.288.078-15.43 0-6.22-.093-12.317.153-18.314 2.298-8.44 3.018-14.915 7.99-18.596 16.34-2.51 5.693-2.9 11.653-2.192 17.68.974 8.288 5.716 13.215 13.877 15.154 4.168.99 8.312.982 12.508.884 5.117-.12 9.847-1.522 14.276-4.088 4.152-2.407 7.284-5.866 10.506-9.526zm-195.475-30.415c8.28 0 16.558 0 24.838.002.872 0 1.674.16 1.95-1.13 1.31-6.144 2.487-12.318 2.073-18.624-.373-5.68-2.896-10.254-7.746-13.483-4.16-2.77-8.86-3.542-13.665-4.196-7.478-1.02-14.864-.204-21.933 1.957-9.933 3.037-17.462 9.298-22.073 18.844-5.734 11.87-8.48 24.38-7.534 37.505.427 5.92 2.59 11.43 7.15 15.734 4.914 4.64 10.95 6.408 17.4 7.134 12.075 1.36 23.864-.65 35.592-3.23.527-.116 1.096-.148 1.23-.915.64-3.638 1.32-7.27 1.992-10.9.198-1.07-.173-1.186-1.09-.78-8.726 3.872-17.816 5.612-27.405 5.31-4.172-.13-7.886-1.205-11.44-3.09-1.76-.935-3.194-2.35-4.27-4.12-2.175-3.576-3.154-7.39-3.146-11.594.007-4.157.412-8.247 1.003-12.347.212-1.47.766-1.917 2.243-1.993 8.275-.42 16.55-.42 24.83-.083zm134.865 28.212c-.45.085-.647.084-.808.16-8.11 3.765-16.61 5.496-25.543 4.743-2.557-.216-4.978-1.04-7.11-2.597-4.857-3.55-6.31-8.705-6.61-14.295-.424-7.836.752-15.494 3.168-22.953 1.454-4.49 3.385-8.792 6.195-12.582 4.522-6.102 11.274-7.757 18.28-7.99 6.84-.228 13.6.984 20.088 3.315 1.052.378 1.437.215 1.603-.85.513-3.28 1.05-6.558 1.61-9.83.19-1.123-.025-1.725-1.35-1.84-7.925-.688-15.83-1.636-23.818-1.09-4.827.328-9.64.834-14.198 2.482-11.504 4.16-18.354 12.903-22.678 23.875-3.69 9.357-5.615 19.05-5.15 29.2.205 4.508.724 8.857 2.79 12.903 2.877 5.634 7.013 9.868 13.306 11.584 12.5 3.41 24.717 1.428 36.855-1.984.653-.183 1.144-.495 1.31-1.187.867-3.587 1.54-7.208 2.062-11.064zm-271.19-64.223v.216c-1.88 0-3.778.16-5.637-.042-2.066-.222-2.697.56-2.964 2.55-1.755 13.095-3.906 26.13-6.287 39.127-2.143 11.698-4.304 23.393-6.836 35.015-.2.915-.25 1.5 1.042 1.482 4.575-.067 9.153-.045 13.73-.01.94.007 1.37-.307 1.432-1.264.088-1.375.207-2.754.418-4.115 3.707-24.008 7.845-47.94 12.91-71.702.235-1.095-.045-1.293-1.04-1.27-2.255.048-4.512.014-6.768.014zm12.81-25.758c.506-2.873-.477-5.285-3.415-6.725-1.668-.817-3.447-.318-5.17-.37-2.086-.063-3.914.888-5.43 2.19-3.848 3.3-3.905 7.91-3.8 12.427.026 1.113.86 2.442 1.716 3.255 2.34 2.22 9.338 1.796 11.817-.416 3.043-2.713 4.572-6.013 4.283-10.36z"/><path d="M645.08 209.09c4.892-.702 9.43.72 13.973 2.198 1.002.326 1.39.744 1.173 1.858-2.472 12.778-4.25 25.693-7.59 38.298-1.732 6.533-4.946 12.074-11.032 15.454-6.39 3.547-16.09 4.406-22.218-1.09-1.93-1.73-2.933-4.034-3.56-6.463-1.336-5.183-.936-10.448-.383-15.68.9-8.514 3.367-16.524 8.073-23.756 3.523-5.415 8.278-9.18 14.643-10.67 2.274-.536 4.62-.066 6.92-.15zM263.855 228.982c-.07 12.172-2.902 22.13-8.596 31.288-5.212 8.382-15.207 11.28-23.95 9.145-6.36-1.555-10.435-7.766-9.953-14.298.74-10.026 3.363-19.73 4.88-29.62.36-2.35.945-4.666 1.283-7.018.183-1.272.717-2.16 1.694-2.974 3.41-2.837 7.06-5.214 11.483-6.096 5.812-1.158 11.497-.82 16.693 2.25 1.734 1.024 3.17 2.604 4.166 4.49 2.376 4.496 2.844 9.27 2.3 12.832zM516.626 236.88c3.133 0 5.766.005 8.398-.002 2.11-.006 2.975-.177 2.364 2.698-1.513 7.115-3.016 14.237-6.932 20.486-2.34 3.732-5.773 6.377-9.94 7.923-2.763 1.024-5.582 1.744-8.594 1.746-1.92.003-3.703-.36-5.52-.863-3.55-.98-5.972-3.283-7.1-6.637-.892-2.648-1.033-5.605-.417-8.318 1.03-4.537 2.797-8.757 6.534-11.957 2.16-1.852 4.61-2.945 7.19-3.874 4.723-1.697 9.652-1.11 14.016-1.2zM323.586 227.147c-5.77 0-11.542-.036-17.312.025-1.413.015-1.72-.297-1.177-1.66 1.612-4.06 2.962-8.154 6.345-11.326 3.117-2.923 6.644-4.623 10.754-5.225 3.787-.554 7.574-.7 11.407-.042 6.257 1.077 9.93 5.447 9.57 11.8-.096 1.687-.394 3.363-.488 5.05-.07 1.233-.64 1.493-1.785 1.482-5.77-.055-11.542-.025-17.313-.025v-.078zM577.05 212.126c-.09.08-.178.163-.267.244l.1-.414.167.17zM386.116 212.468c-.028.18.026.507-.247.41-.166-.06-.145-.4.115-.543.042.045.086.09.13.133z"/></g></svg>
<svg width="750" height="471" viewBox="0 0 750 471" id="jcb" y="2415"><title>Slice 1</title><path fill="#FFF" d="M617.242 346.766c0 41.615-33.73 75.36-75.357 75.36H132.76v-297.88c0-41.627 33.73-75.372 75.363-75.372h409.12v297.892z"/><linearGradient id="afa" gradientUnits="userSpaceOnUse" x1="824.742" y1="333.781" x2="825.742" y2="333.781" gradientTransform="matrix(132.8743 0 0 -323.0226 -109129.53 108054.602)"><stop offset="0" stop-color="#007B40"/><stop offset="1" stop-color="#55B330"/></linearGradient><path fill="url(#afa)" d="M483.86 242.045c11.686.254 23.44-.516 35.078.4 11.787 2.2 14.627 20.043 4.156 25.887-7.145 3.85-15.633 1.434-23.38 2.113H483.86v-28.4zm41.834-32.145c2.596 9.164-6.238 17.392-15.064 16.13h-26.77c.188-8.642-.367-18.022.273-26.21 10.723.303 21.547-.615 32.21.48 4.58 1.152 8.413 4.918 9.35 9.6zM590.12 73.997c.497 17.5.07 35.927.214 53.783-.033 72.596.07 145.195-.057 217.79-.47 27.206-24.582 50.846-51.6 51.39-27.045.11-54.094.016-81.143.046v-109.75c29.47-.153 58.957.308 88.416-.23 13.666-.86 28.635-9.876 29.27-24.915 1.61-15.102-12.63-25.55-26.15-27.2-5.198-.135-5.046-1.515 0-2.117 12.894-2.787 23.02-16.133 19.226-29.5-3.234-14.057-18.77-19.498-31.695-19.47-26.35-.18-52.708-.026-79.062-.078.17-20.49-.355-41 .283-61.474C459.91 95.556 484.63 73.524 511.27 74l78.85-.003z"/><linearGradient id="afb" gradientUnits="userSpaceOnUse" x1="824.755" y1="333.782" x2="825.748" y2="333.782" gradientTransform="matrix(133.4307 0 0 -323.0203 -109887.688 108053.82)"><stop offset="0" stop-color="#1D2970"/><stop offset="1" stop-color="#006DBA"/></linearGradient><path fill="url(#afb)" d="M159.742 125.04c.673-27.163 24.888-50.61 51.872-51.007 26.945-.083 53.894-.012 80.84-.036-.075 90.885.145 181.776-.112 272.657-1.038 26.834-24.99 49.834-51.68 50.31-26.995.097-53.994.013-80.99.04V283.55c26.222 6.196 53.72 8.833 80.473 4.724 15.99-2.574 33.487-10.426 38.9-27.016 3.985-14.19 1.742-29.126 2.335-43.69V183.74h-46.297c-.208 22.37.426 44.78-.335 67.125-1.248 13.734-14.85 22.46-27.802 21.994-16.064.17-47.897-11.64-47.897-11.64-.08-41.915.465-94.406.692-136.18z"/><linearGradient id="afc" gradientUnits="userSpaceOnUse" x1="824.742" y1="333.781" x2="825.741" y2="333.781" gradientTransform="matrix(132.9583 0 0 -323.0276 -109347.922 108056.266)"><stop offset="0" stop-color="#6E2B2F"/><stop offset="1" stop-color="#E30138"/></linearGradient><path fill="url(#afc)" d="M309.72 197.39c-2.436.517-.49-8.3-1.113-11.646.166-21.15-.346-42.323.284-63.458 2.083-26.83 26.992-48.916 53.74-48.288h78.766c-.074 90.885.145 181.775-.11 272.657-1.04 26.834-24.993 49.833-51.683 50.31-26.998.1-53.998.014-80.997.04V272.708c18.44 15.13 43.5 17.484 66.472 17.525 17.318-.006 34.535-2.676 51.353-6.67V260.79c-18.952 9.446-41.233 15.446-62.243 10.02-14.656-3.65-25.294-17.814-25.057-32.938-1.698-15.73 7.522-32.335 22.98-37.01 19.19-6.01 40.107-1.414 58.095 6.397 3.855 2.017 7.766 4.52 6.225-1.922v-17.9c-30.086-7.157-62.104-9.79-92.33-2.004-8.748 2.468-17.272 6.21-24.38 11.956z"/></svg>
<svg width="750" height="471" viewBox="0 0 750 471" id="maestro" y="2886"><title>Slice 1</title><path fill="#D9222A" d="M675 235.506c0 99.133-80.35 179.496-179.483 179.496-99.12 0-179.48-80.362-179.48-179.496 0-99.142 80.36-179.508 179.48-179.508C594.65 55.998 675 136.365 675 235.506"/><path fill="#0097D0" d="M356.87 349.49c-4.958-6.014-9.524-12.36-13.675-19.01h63.612c3.817-6.096 7.263-12.44 10.342-19.012h-84.293c-2.87-6.15-5.425-12.492-7.596-19h99.477c5.987-17.904 9.23-37.05 9.23-56.962 0-13.046-1.393-25.763-4.03-38.013H320.075c1.392-6.48 3.142-12.816 5.21-19.008h99.44c-2.184-6.508-4.72-12.85-7.592-19.004h-84.254c3.075-6.562 6.53-12.903 10.337-19.008h63.57c-4.145-6.63-8.724-12.975-13.67-18.99H356.89c5.57-6.768 11.63-13.118 18.112-19-31.854-28.885-74.138-46.484-120.517-46.484C155.36 55.998 75 136.365 75 235.506c0 99.133 80.358 179.496 179.487 179.496 46.388 0 88.666-17.596 120.517-46.475 6.496-5.893 12.56-12.26 18.133-19.037H356.87"/><path d="M651.074 335.544c0-3.2 2.596-5.796 5.8-5.796 3.2 0 5.792 2.596 5.792 5.796 0 3.204-2.592 5.8-5.79 5.8-3.206 0-5.802-2.596-5.802-5.8zm5.8 4.408c2.434 0 4.404-1.967 4.404-4.408 0-2.434-1.97-4.396-4.403-4.396-2.434 0-4.41 1.962-4.41 4.396 0 2.44 1.977 4.408 4.41 4.408zm-.787-1.862h-1.184v-5.092h2.15c.446 0 .904.004 1.3.258.417.283.646.775.646 1.27 0 .584-.34 1.113-.88 1.317l.933 2.246h-1.316l-.775-2.01h-.875v2.01zm0-2.88h.658c.246 0 .505.017.726-.1.196-.13.3-.366.3-.592 0-.188-.124-.417-.287-.513-.212-.125-.54-.1-.762-.1h-.633v1.306zM372.446 284.006c-7.67 2.033-15.088 3.025-22.93 3.01-25.016-.025-38.045-11.418-38.045-33.2 0-25.46 16.588-44.184 39.1-44.184 18.418 0 30.176 10.5 30.176 26.946 0 5.458-.796 10.77-2.745 18.296h-44.487c-1.583 10.633 6.188 15.305 19.413 15.305 7.925 0 15.092-1.427 23.024-4.614l-3.504 18.44zm-11.963-44.15c0-1.608 2.476-13.034-10.4-13.284-7.107 0-12.207 4.725-14.27 13.284h24.67zM387.517 234.865c0 9.404 5.296 15.9 17.33 20.737 9.198 3.77 10.648 4.86 10.648 8.22 0 4.664-4.066 6.806-13.092 6.747-6.778-.05-12.962-.872-20.262-2.897l-3.228 17.154c6.487 1.504 15.588 2 23.65 2.188 24.024 0 35.116-7.866 35.116-24.866 0-10.218-4.625-16.235-16.033-20.714-9.538-3.81-10.658-4.638-10.658-8.083 0-4.05 3.78-6.1 11.15-6.1 4.462 0 10.578.413 16.38 1.108l3.257-17.24c-5.912-.826-14.883-1.484-20.075-1.484-25.45 0-34.258 11.458-34.183 25.23M299.275 285.785h-18.662l.445-7.82c-5.69 6.17-13.27 9.04-23.558 9.04-12.175 0-20.517-8.323-20.517-20.294 0-18.195 14.5-28.69 39.43-28.69 2.562 0 5.82.19 9.166.562.69-2.433.878-3.48.878-4.808 0-4.98-3.92-6.813-14.412-6.813-10.342.043-17.32 1.572-23.796 3.314l3.188-16.7c11.195-2.846 18.53-3.94 26.825-3.94 19.304 0 29.5 7.565 29.5 21.795.166 3.794-1.16 11.412-1.82 14.745-.76 4.852-6.11 32.973-6.668 39.61zm-16.38-33.19c-2.365-.243-3.395-.314-5.012-.314-12.73 0-19.183 3.788-19.183 11.268 0 4.692 3.15 7.634 8.058 7.634 9.147 0 15.75-7.65 16.138-18.588zM477.004 284.606c-6.125 1.68-10.896 2.408-16.06 2.408-11.433 0-17.674-5.842-17.674-16.25-.358-2.858 2.434-16.06 3.066-19.737.634-3.69 10.538-57.492 10.538-57.492h22.212l-3.362 17.8h11.392l-3.096 18.17h-11.44s-6.28 31.53-6.28 33.934c0 3.824 2.316 5.487 7.633 5.487 2.546 0 4.51-.238 6.03-.692l-2.96 16.37M576.25 209.63c-16.28 0-29 6.7-36.388 17.893l6.412-16.596c-11.816-4.337-19.434 1.85-26.325 10.65 0 0-1.155 1.462-2.3 2.8v-13.05h-20.86c-2.824 23.03-7.82 46.38-11.728 69.446l-.942 5.02h22.438c2.125-11.707 3.875-21.212 5.617-28.787 4.767-20.787 12.787-27.14 24.83-24.333-2.78 5.98-4.306 12.892-4.306 20.554 0 18.58 10.09 33.788 35.15 33.788 25.286 0 43.595-13.51 43.595-44.31 0-18.578-12.2-33.074-35.195-33.074zm-6.53 59.317c-7.925.125-12.728-6.524-12.728-16.47 0-11.792 7.013-25.113 18.275-25.113 9.087 0 12.2 7.204 12.2 14.88 0 16.78-6.876 26.703-17.746 26.703zM226.53 285.794h-22.342l13.28-69.954-30.572 69.954H166.53l-3.726-69.55-13.32 69.55h-20.27l17.266-90.996h34.913l2.912 50.726 22.117-50.726h37.72l-17.612 90.996"/><path fill="#FFF" d="M613.15 274.385c0-3.195 2.596-5.795 5.796-5.795 3.204 0 5.796 2.6 5.796 5.795 0 3.21-2.592 5.805-5.796 5.805-3.2 0-5.796-2.596-5.796-5.805zm5.796 4.413c2.434 0 4.408-1.98 4.408-4.413 0-2.433-1.975-4.403-4.408-4.403s-4.408 1.97-4.408 4.403 1.974 4.413 4.408 4.413zm-.784-1.866h-1.188v-5.084h2.15c.45 0 .908 0 1.304.25.408.28.646.768.646 1.27 0 .58-.337 1.117-.883 1.317l.935 2.246h-1.317l-.77-2.008h-.876v2.01zm0-2.888h.658c.242 0 .504.017.725-.097.196-.133.296-.357.296-.587 0-.196-.12-.417-.282-.513-.212-.13-.54-.096-.763-.096h-.633v1.294zM378.054 278.398c-7.667 2.033-15.088 3.03-22.925 3.012-25.018-.025-38.047-11.42-38.047-33.208 0-25.45 16.58-44.18 39.096-44.18 18.42 0 30.174 10.497 30.174 26.943 0 5.467-.8 10.77-2.74 18.3h-44.488c-1.584 10.63 6.18 15.308 19.408 15.308 7.925 0 15.087-1.424 23.03-4.616l-3.51 18.44zm-11.963-44.15c0-1.604 2.473-13.033-10.398-13.28-7.108 0-12.204 4.73-14.27 13.28h24.67zM393.13 229.252c0 9.408 5.286 15.9 17.324 20.746 9.204 3.767 10.65 4.858 10.65 8.213 0 4.667-4.067 6.81-13.088 6.75-6.784-.046-12.967-.87-20.263-2.895l-3.237 17.146c6.49 1.517 15.596 2.013 23.653 2.2 24.024 0 35.12-7.87 35.12-24.87 0-10.218-4.63-16.237-16.04-20.713-9.54-3.81-10.655-4.638-10.655-8.083 0-4.05 3.783-6.1 11.146-6.1 4.472 0 10.584.417 16.39 1.113l3.25-17.246c-5.914-.824-14.88-1.482-20.067-1.482-25.46 0-34.263 11.453-34.184 25.224M304.887 280.182H286.22l.45-7.82c-5.695 6.157-13.274 9.032-23.558 9.032-12.175 0-20.52-8.325-20.52-20.287 0-18.204 14.494-28.696 39.428-28.696 2.563 0 5.816.193 9.17.564.692-2.433.876-3.475.876-4.808 0-4.983-3.917-6.813-14.408-6.813-10.342.042-17.32 1.575-23.796 3.313l3.184-16.696c11.2-2.85 18.53-3.946 26.83-3.946 19.303 0 29.494 7.567 29.494 21.792.167 3.8-1.158 11.412-1.816 14.754-.763 4.85-6.112 32.97-6.667 39.612zM288.5 246.985c-2.358-.245-3.392-.313-5.013-.313-12.72 0-19.18 3.788-19.18 11.267 0 4.694 3.154 7.632 8.055 7.632 9.155 0 15.758-7.653 16.138-18.587zM482.608 279.002c-6.12 1.676-10.896 2.408-16.054 2.408-11.434 0-17.67-5.846-17.67-16.254-.363-2.854 2.433-16.06 3.062-19.737.634-3.693 10.537-57.493 10.537-57.493h22.21l-3.355 17.8h11.392l-3.096 18.17h-11.44s-6.284 31.53-6.284 33.934c0 3.826 2.32 5.48 7.633 5.48 2.542 0 4.51-.23 6.03-.69L482.607 279M593.08 236.635c0 16.775-6.88 26.71-17.756 26.71-7.92.11-12.725-6.526-12.725-16.476 0-11.793 7.007-25.114 18.27-25.114 9.092 0 12.21 7.213 12.21 14.88zm23.978.467c0-18.58-12.208-33.08-35.195-33.08-26.45 0-43.55 17.626-43.55 43.597 0 18.577 10.083 33.79 35.15 33.79 25.287 0 43.595-13.512 43.595-44.308zM502.396 205.72c-2.82 23.028-7.816 46.374-11.72 69.45l-.947 5.02h22.433c8.088-44.558 10.8-57.254 27.74-52.783l8.15-21.087c-11.815-4.337-19.424 1.854-26.308 10.658.62-3.962 1.792-7.783 1.51-11.258h-20.86M232.138 280.19H209.8l13.275-69.96-30.575 69.96h-20.362l-3.726-69.555-13.32 69.554h-20.27l17.262-91h34.92l1.847 56.333 24.576-56.334h36.325l-17.612 91"/></svg>
<svg width="750" height="471" viewBox="0 0 750 471" id="mastercard" y="3357"><title>Slice 1</title><path fill="#D9222A" d="M434.008 235.5c0 99.142-80.37 179.504-179.508 179.504-99.137 0-179.5-80.362-179.5-179.504 0-99.133 80.362-179.504 179.5-179.504 99.137 0 179.508 80.37 179.508 179.504"/><path fill="#EE9F2D" d="M495.49 55.996c-46.378 0-88.64 17.596-120.5 46.467-6.486 5.883-12.545 12.238-18.124 18.996h36.267c4.958 6.028 9.525 12.37 13.684 19.01h-63.634c-3.813 6.105-7.274 12.447-10.342 19.01h84.314c2.88 6.158 5.42 12.495 7.6 19.003h-99.512c-2.075 6.19-3.82 12.53-5.217 19.008h109.94c2.64 12.25 4.043 24.968 4.043 38.01 0 19.933-3.254 39.11-9.254 57.02H325.24c2.176 6.512 4.718 12.854 7.597 19.008h84.316c-3.074 6.563-6.528 12.904-10.346 19.012h-63.625c4.154 6.63 8.73 12.98 13.684 18.996h36.26c-5.572 6.77-11.635 13.134-18.13 19.013 31.857 28.865 74.116 46.453 120.495 46.453 99.14 0 179.51-80.36 179.51-179.503 0-99.13-80.37-179.504-179.51-179.504"/><path d="M651.074 335.56c0-3.2 2.592-5.802 5.796-5.802s5.796 2.6 5.796 5.8c0 3.2-2.592 5.8-5.796 5.8s-5.796-2.6-5.796-5.8zm5.796 4.407c2.434 0 4.408-1.975 4.408-4.408 0-2.44-1.975-4.405-4.408-4.405-2.438 0-4.404 1.967-4.404 4.404 0 2.432 1.967 4.407 4.404 4.407zm-.783-1.86H654.9v-5.095h2.15c.45 0 .908 0 1.304.254.413.28.646.77.646 1.28 0 .57-.338 1.103-.884 1.312l.938 2.25h-1.316l-.78-2.017h-.87v2.018zm0-2.89h.658c.246 0 .505.02.726-.1.196-.125.297-.36.297-.584 0-.195-.12-.42-.288-.517-.21-.13-.538-.1-.76-.1h-.633v1.3zM212.587 255.154c-2.046-.238-2.945-.3-4.35-.3-11.046 0-16.638 3.787-16.638 11.267 0 4.613 2.728 7.546 6.986 7.546 7.94 0 13.66-7.558 14-18.512zm14.17 32.996h-16.145l.37-7.676c-4.925 6.066-11.495 8.95-20.425 8.95-10.563 0-17.804-8.25-17.804-20.23 0-18.023 12.596-28.54 34.217-28.54 2.208 0 5.042.2 7.94.57.605-2.44.764-3.487.764-4.8 0-4.908-3.396-6.737-12.5-6.737-9.533-.108-17.396 2.27-20.625 3.333.203-1.23 2.7-16.66 2.7-16.66 9.71-2.845 16.115-3.916 23.324-3.916 16.732 0 25.596 7.513 25.58 21.712.032 3.805-.598 8.5-1.58 14.67-1.69 10.733-5.32 33.72-5.816 39.324zM164.6 288.15h-19.487l11.162-69.996-24.925 69.996h-13.28l-1.64-69.596-11.734 69.596H86.454l15.237-91.055h28.022l1.7 50.967 17.092-50.967h31.167L164.6 288.15M519.574 255.154c-2.037-.238-2.94-.3-4.342-.3-11.04 0-16.633 3.787-16.633 11.267 0 4.613 2.724 7.546 6.982 7.546 7.94 0 13.663-7.558 13.992-18.512zm14.184 32.996h-16.146l.366-7.676c-4.925 6.066-11.5 8.95-20.42 8.95-10.567 0-17.8-8.25-17.8-20.23 0-18.023 12.587-28.54 34.212-28.54 2.208 0 5.037.2 7.933.57.604-2.44.763-3.487.763-4.8 0-4.908-3.392-6.737-12.496-6.737-9.533-.108-17.387 2.27-20.63 3.333.205-1.23 2.71-16.66 2.71-16.66 9.712-2.845 16.112-3.916 23.313-3.916 16.74 0 25.604 7.513 25.587 21.712.033 3.805-.596 8.5-1.58 14.67-1.683 10.733-5.32 33.72-5.812 39.324zM313.366 287.025c-5.333 1.68-9.49 2.4-14 2.4-9.962 0-15.4-5.726-15.4-16.268-.14-3.27 1.434-11.88 2.672-19.737 1.125-6.917 8.45-50.53 8.45-50.53h19.37l-2.263 11.21h11.7l-2.642 17.795H309.51c-2.25 14.083-5.453 31.625-5.49 33.95 0 3.816 2.037 5.483 6.67 5.483 2.222 0 3.942-.226 5.255-.7l-2.58 16.397M372.758 286.425c-6.654 2.034-13.075 3.017-19.88 3-21.683-.02-32.986-11.346-32.986-33.033 0-25.313 14.38-43.946 33.9-43.946 15.97 0 26.17 10.433 26.17 26.796 0 5.43-.7 10.73-2.388 18.212H339c-1.305 10.74 5.57 15.217 16.837 15.217 6.934 0 13.188-1.428 20.142-4.662l-3.222 18.417zm-10.888-43.9c.108-1.542 2.055-13.217-9.013-13.217-6.17 0-10.583 4.704-12.38 13.217h21.393zM238.446 237.508c0 9.367 4.542 15.826 14.842 20.676 7.892 3.708 9.112 4.81 9.112 8.17 0 4.617-3.48 6.7-11.19 6.7-5.814 0-11.222-.907-17.46-2.92 0 0-2.562 16.32-2.68 17.1 4.43.967 8.38 1.862 20.28 2.19 20.563 0 30.06-7.828 30.06-24.75 0-10.174-3.977-16.145-13.738-20.633-8.17-3.75-9.108-4.586-9.108-8.044 0-4.004 3.237-6.046 9.537-6.046 3.826 0 9.05.408 14 1.112l2.776-17.175c-5.046-.8-12.696-1.442-17.15-1.442-21.8 0-29.347 11.388-29.28 25.063M467.533 214.392c5.412 0 10.458 1.42 17.412 4.92l3.188-19.762c-2.854-1.12-12.904-7.7-21.417-7.7-13.04 0-24.066 6.47-31.82 17.15-11.31-3.746-15.958 3.825-21.658 11.367l-5.063 1.18c.383-2.484.73-4.95.612-7.447H390.89c-2.445 22.917-6.778 46.128-10.17 69.075l-.884 4.976h19.496c3.254-21.142 5.037-34.68 6.12-43.84l7.342-4.085c1.097-4.078 4.53-5.458 11.417-5.29-.898 4.832-1.382 9.915-1.382 15.183 0 24.225 13.07 39.308 34.05 39.308 5.404 0 10.04-.712 17.22-2.658l3.43-20.76c-6.458 3.18-11.758 4.677-16.558 4.677-11.33 0-18.184-8.363-18.184-22.184 0-20.05 10.197-34.108 24.747-34.108"/><path fill="#FFF" d="M170.208 282.742h-19.49l11.17-69.988-24.926 69.988H123.68l-1.643-69.588-11.733 69.588h-18.24L107.3 191.7h28.02l.79 56.362 18.903-56.362h30.267l-15.072 91.042"/><path d="M632.52 197.096l-4.32 26.31c-5.33-7.014-11.054-12.09-18.612-12.09-9.833 0-18.783 7.456-24.642 18.426-8.158-1.692-16.596-4.563-16.596-4.563l-.004.066c.658-6.134.92-9.875.862-11.146h-17.9c-2.438 22.917-6.77 46.128-10.158 69.075l-.892 4.976h19.492c2.633-17.095 4.65-31.29 6.133-42.55 6.658-6.016 9.992-11.266 16.72-10.916-2.978 7.204-4.724 15.504-4.724 24.017 0 18.514 9.365 30.726 23.532 30.726 7.142 0 12.62-2.462 17.967-8.17l-.914 6.883H636.9l14.842-91.043h-19.22zm-24.37 73.94c-6.633 0-9.983-4.907-9.983-14.595 0-14.553 6.27-24.874 15.112-24.874 6.695 0 10.32 5.104 10.32 14.51 0 14.678-6.37 24.96-15.45 24.96z"/><path fill="#FFF" d="M218.192 249.758c-2.042-.236-2.946-.3-4.346-.3-11.046 0-16.634 3.788-16.634 11.267 0 4.604 2.73 7.547 6.98 7.547 7.946 0 13.667-7.56 14-18.514zm14.178 32.984h-16.146l.367-7.663c-4.92 6.053-11.5 8.95-20.42 8.95-10.567 0-17.805-8.25-17.805-20.23 0-18.033 12.592-28.542 34.217-28.542 2.208 0 5.042.2 7.938.57.604-2.44.763-3.486.763-4.807 0-4.908-3.392-6.728-12.496-6.728-9.537-.108-17.396 2.27-20.63 3.32.205-1.224 2.7-16.636 2.7-16.636 9.71-2.858 16.12-3.93 23.32-3.93 16.738 0 25.605 7.518 25.59 21.705.028 3.822-.605 8.514-1.585 14.676-1.687 10.724-5.32 33.724-5.812 39.316zM493.745 194.15l-3.19 19.767c-6.95-3.496-12-4.92-17.41-4.92-14.55 0-24.75 14.058-24.75 34.107 0 13.82 6.86 22.18 18.185 22.18 4.8 0 10.096-1.492 16.554-4.675l-3.42 20.75c-7.185 1.957-11.817 2.67-17.226 2.67-20.976 0-34.05-15.084-34.05-39.31 0-32.55 18.058-55.3 43.887-55.3 8.508 0 18.562 3.61 21.42 4.73M525.188 249.758c-2.042-.236-2.942-.3-4.347-.3-11.04 0-16.632 3.788-16.632 11.267 0 4.604 2.73 7.547 6.983 7.547 7.94 0 13.664-7.56 13.998-18.514zm14.178 32.984h-16.15l.37-7.663c-4.924 6.053-11.5 8.95-20.42 8.95-10.563 0-17.804-8.25-17.804-20.23 0-18.033 12.596-28.542 34.212-28.542 2.213 0 5.042.2 7.942.57.6-2.44.762-3.486.762-4.807 0-4.908-3.392-6.728-12.495-6.728-9.533-.108-17.396 2.27-20.63 3.32.204-1.224 2.704-16.636 2.704-16.636 9.71-2.858 16.117-3.93 23.317-3.93 16.74 0 25.604 7.518 25.583 21.705.033 3.822-.596 8.514-1.58 14.676-1.682 10.724-5.323 33.724-5.81 39.316zM318.975 281.62c-5.338 1.68-9.496 2.41-14 2.41-9.962 0-15.4-5.726-15.4-16.268-.137-3.28 1.44-11.88 2.676-19.737 1.12-6.926 8.446-50.534 8.446-50.534h19.367l-2.26 11.213h9.942L325.1 226.49h-9.976c-2.25 14.093-5.463 31.622-5.496 33.95 0 3.83 2.04 5.484 6.67 5.484 2.222 0 3.94-.216 5.255-.69l-2.578 16.387M378.366 281.03c-6.65 2.032-13.08 3.01-19.88 3-21.683-.022-32.986-11.347-32.986-33.034 0-25.32 14.38-43.95 33.9-43.95 15.97 0 26.17 10.43 26.17 26.8 0 5.434-.7 10.733-2.383 18.213h-38.575c-1.305 10.74 5.57 15.22 16.837 15.22 6.93 0 13.187-1.434 20.137-4.676l-3.22 18.425zm-10.89-43.913c.115-1.538 2.058-13.217-9.014-13.217-6.167 0-10.58 4.717-12.375 13.217h21.388zM244.054 232.112c0 9.366 4.542 15.817 14.842 20.675 7.892 3.71 9.112 4.813 9.112 8.172 0 4.615-3.483 6.698-11.188 6.698-5.816 0-11.225-.908-17.467-2.92 0 0-2.554 16.32-2.67 17.1 4.42.967 8.374 1.85 20.274 2.19 20.566 0 30.06-7.828 30.06-24.745 0-10.18-3.972-16.15-13.738-20.637-8.168-3.76-9.114-4.584-9.114-8.046 0-4 3.246-6.06 9.542-6.06 3.82 0 9.046.422 14.004 1.126l2.77-17.18c-5.04-.8-12.69-1.44-17.145-1.44-21.804 0-29.346 11.38-29.283 25.066M642.508 282.742H624.07l.917-6.893c-5.346 5.716-10.825 8.18-17.967 8.18-14.167 0-23.53-12.214-23.53-30.726 0-24.63 14.522-45.392 31.71-45.392 7.558 0 13.278 3.087 18.603 10.096l4.325-26.308h19.22l-14.84 91.042zm-28.746-17.11c9.075 0 15.45-10.282 15.45-24.952 0-9.405-3.63-14.51-10.325-14.51-8.837 0-15.116 10.317-15.116 24.876 0 9.687 3.36 14.587 9.992 14.587zM556.92 208.704c-2.44 22.917-6.774 46.13-10.162 69.063l-.892 4.976h19.49c6.973-45.275 8.66-54.117 19.59-53.01 1.74-9.266 4.982-17.382 7.4-21.478-8.164-1.7-12.722 2.913-18.69 11.675.472-3.788 1.334-7.467 1.163-11.225h-17.9M396.5 208.704c-2.446 22.917-6.78 46.13-10.167 69.063l-.888 4.976h19.5c6.963-45.275 8.646-54.117 19.57-53.01 1.75-9.266 4.992-17.382 7.4-21.478-8.154-1.7-12.717 2.913-18.68 11.675.472-3.788 1.326-7.467 1.163-11.225H396.5M651.067 276.945c0-3.212 2.596-5.8 5.796-5.8 3.204 0 5.796 2.588 5.796 5.8 0 3.196-2.593 5.797-5.797 5.797-3.2 0-5.796-2.6-5.796-5.797zm5.796 4.405c2.438 0 4.404-1.975 4.404-4.404 0-2.433-1.967-4.408-4.404-4.408-2.434 0-4.408 1.976-4.408 4.408 0 2.43 1.974 4.404 4.408 4.404zm-.784-1.87h-1.19v-5.083h2.154c.446 0 .91.008 1.296.254.417.284.654.767.654 1.275 0 .575-.337 1.112-.888 1.317l.942 2.236h-1.32l-.78-2.008h-.87v2.01zm0-2.88h.652c.246 0 .513.018.73-.1.195-.125.295-.362.295-.588 0-.188-.116-.412-.287-.524-.204-.116-.542-.083-.763-.083h-.63v1.295h.002z"/></svg>
<svg width="752" height="471" viewBox="0 0 752 471" id="meli" y="3828"><title>Slice 1</title><path fill="#FDE600" d="M113.35 213.05c35.775 8.23 71.633 16.044 104.846 32.437 3.815 1.883 7.48 4.028 11.032 6.382 1.262.835 1.498 1.63 1 3.054-6.563 18.714 8.85 37.784 28.404 35.968 2.125-.197 2.806.508 3.357 2.365 3.808 12.84 15.17 22.068 28.348 23.148.207.017.433.064.62.005 5.486-1.713 7.837 1.518 11.05 5.476 7.717 9.502 18.025 13.71 30.453 10.855 1.514-.347 2.063 0 2.763 1.326 10.438 19.763 33.622 24.222 50.775 9.76 1.26-1.062 2.123-1.077 3.522-.35 6.944 3.61 14.187 6.49 22.082 6.953 10.295.6 19.946-.898 26.652-9.992.972-1.32 1.964-.592 3.036-.355 12.796 2.836 27.892-4.163 32.942-16.085 1.706-4.028 3.567-4.483 7.395-4.474 12.085.027 21.525-5.37 28.14-15.48 2.07-3.16 3.19-6.758 3.226-10.585.02-2.09.716-2.77 2.954-2.54 9.78 1.013 18.22-2.08 25.18-8.988 7.377-7.32 9.34-18.516 4.644-27.862-1.332-2.654-.736-3.327 1.698-4.31 34.97-14.107 70.988-24.814 107.644-33.496 2.018-.478 2.608-.034 2.726 2.112 1.49 27.038-6.35 51.415-21.114 73.747-15.703 23.753-36.744 41.91-60.717 56.84-31.95 19.9-66.764 32.604-103.417 40.5-26.15 5.63-52.612 8.502-79.378 8.96-53.102.908-104.623-7.062-154.058-26.915-28.528-11.457-54.876-26.59-77.693-47.42-18.903-17.26-33.986-37.216-42.508-61.63-5.476-15.69-7.65-31.828-5.893-48.42.03-.292.166-.575.29-.988z"/><path fill="#FEFEFE" d="M315.86 133.652c-7.422 7.986-14.55 15.655-21.68 23.323-2.263 2.435-4.556 4.842-6.792 7.302-5.277 5.807-4.946 12.55.913 17.83 5.403 4.87 12.145 6.533 19.04 7.78 13.9 2.515 26.24-.95 37.527-9.31 9.097-6.737 17.642-14.215 27.21-20.32 6.667-4.253 13.42-8.313 21.407-9.664 7.425-1.256 14.19.65 20.618 4.21 9.52 5.274 17.638 12.45 25.934 19.355 30.67 25.522 60.764 51.718 90.91 77.855 3.17 2.75 5.503 5.94 6.315 10.08 1.757 8.952-5.334 17.254-15.56 18.295-5.774.588-10.717-.94-15.124-4.962-12.356-11.274-24.898-22.345-37.38-33.48-1.47-1.31-2.956-2.622-4.79-3.437-1.334-.594-2.65-.647-3.775.392-1.253 1.16-1.113 2.6-.543 4.03.554 1.393 1.672 2.36 2.7 3.386 11.322 11.322 22.648 22.64 33.963 33.968 4.417 4.422 7.266 9.32 5.043 15.9-4.252 12.582-22.492 17-31.912 7.825-9.227-8.987-18.217-18.234-28.092-26.54-1.425-1.198-2.807-2.526-4.77-2.782-1.14-.15-2.308-.165-3.132.894-.867 1.115-.906 2.336-.22 3.497.63 1.06 1.358 2.088 2.178 3.01 8.36 9.388 16.776 18.73 25.12 28.134 4.806 5.417 4.66 10.345-.588 15.254-5.596 5.236-12.276 6.03-19.456 4.17-1.582-.41-2.65-1.56-3.752-2.673-7.603-7.684-15.353-15.214-23.635-22.172-1.182-.993-2.462-1.952-3.85-2.595-1.36-.63-2.848-.544-3.976.774-1.06 1.24-.787 2.53-.08 3.76.514.892 1.136 1.742 1.826 2.504 6.623 7.316 13.263 14.616 19.914 21.906 2.864 3.14 2.735 4.42-1.138 6.343-5.6 2.782-11.533 3.23-17.61 1.913-4.484-.972-8.7-2.692-12.885-4.544-1.608-.712-1.77-1.416-1.2-2.995 7.187-19.93-4.036-39.694-24.716-43.8-2.168-.43-5.137.82-6.32-1.11-.985-1.61-.183-4.254-.363-6.424-1.145-13.776-10.888-23.758-24.943-25.814-4.507-.66-8.926-.552-13.245.807-1.43.45-1.986.1-2.67-1.075-7.775-13.37-28.485-17.956-42.164-9.696-1.864 1.125-2.925 1.228-4.598-.462-10.165-10.267-25.697-10.943-37.034-1.76-.99.8-1.655 1.55-3.145.556-16.58-11.043-35.147-17.64-53.865-23.887-19.808-6.612-40.242-10.882-60.386-16.238-6.084-1.62-6.057-1.664-4.465-7.622 6.123-22.91 18.35-42.292 34.32-59.526 6.016-6.492 12.628-12.33 19.308-18.113 1.887-1.634 3.384-1.626 5.533-.778 24.066 9.497 48.707 17.108 73.988 22.686 17.34 3.825 34.378 3.34 51.264-2.324 4.692-1.568 9.52-2.735 14.823-3.642z"/><path fill="#FEFEFE" d="M405.506 108.675c11.06.126 28.967 4.808 45.947 12.73 22.514 10.504 45.946 16.792 70.842 16.976 23.456.175 45.91-4.96 67.64-13.538 3.57-1.41 7.112-2.892 10.6-4.488 1.31-.6 2.195-.57 3.317.403 21.388 18.517 38.538 40.04 47.83 67.163 1.515 4.42 2.586 8.96 3.73 13.488.55 2.18.073 2.883-1.995 3.335-18.043 3.943-35.827 8.855-53.44 14.404-20.476 6.452-40.65 13.725-60.3 22.386-2.108.928-3.4.642-5.154-.88-31.95-27.69-63.744-55.564-96.48-82.334-5.066-4.145-10.368-7.968-15.762-11.684-15.646-10.78-31.577-10.54-47.764-1.453-10.836 6.083-20.047 14.417-29.908 21.852-3.15 2.375-6.378 4.65-9.635 6.873-9.666 6.6-20.242 7.396-31.32 4.765-1.005-.24-1.996-.574-2.954-.963-6.635-2.695-7.003-4.203-2.116-9.396 11.175-11.872 21.792-24.293 34.058-35.1 19.8-17.44 38.723-24.538 72.864-24.54z"/><path fill="#FDE600" d="M593.008 111.88c-13.843 5.974-27.584 10.445-41.89 13.137-33.31 6.268-64.872.867-95.38-13.437-21.14-9.91-43.47-15.1-67.024-13.373-21 1.54-40.157 8.083-56.687 21.488-.878.712-1.693 1.494-2.97 1.53-11.306.323-22.24 2.858-32.89 6.34-16.927 5.53-33.61 4.35-50.55.03-21.19-5.402-42.15-11.47-62.748-19.036.517-1.558 1.927-1.967 2.98-2.682 30.115-20.43 63.256-33.94 98.374-42.896 39.32-10.03 79.293-13.684 119.777-11.944 37.103 1.595 73.4 7.807 108.65 19.68 27.775 9.356 53.923 21.973 77.732 39.208.754.545 1.493 1.11 2.626 1.953z"/><path fill="#FEFEFE" d="M273.762 265.643c1.416-.935 1.892-2.22 2.617-3.274 6.24-9.063 16.744-13.004 26.995-10.064 6.972 2 11.01 6.687 12.424 13.727.162.813.233 1.645.397 2.458.572 2.835 2.105 3.405 4.287 1.397 6.312-5.808 13.404-6.413 21.114-3.43 8.59 3.324 12.723 10.877 11.38 20.828-.375 2.782-.974 5.506-1.924 8.163-.537 1.503-1.567 3.175-.06 4.645 1.514 1.477 3.15.32 4.642-.195 4.684-1.62 9.34-2.573 14.304-1.1 11.097 3.296 17.97 13.647 16.263 24.738-1.695 11.006-11.4 18.836-23.027 18.577-10.906-.244-19.724-8.813-21.017-20.453-.182-1.625.172-3.566-1.84-4.23-1.747-.576-2.88.83-4.014 1.867-5.85 5.353-12.288 5.334-19.032 2.042-6.864-3.352-11.456-8.224-10.638-16.544.115-1.174.125-2.38-1.023-3.056-1.14-.67-2.187-.015-3.19.542-15.08 8.374-31.08-.795-31.635-18.157-.06-1.86.14-3.733.288-5.595.097-1.218-.045-2.328-1.176-2.988-1.284-.75-1.83.504-2.567 1.115-9.716 8.07-23.91 3.947-27.69-8.056-2.902-9.218 2.65-18.944 12.274-21.502 9.085-2.415 18.763 3.407 20.82 12.566.42 1.88.657 3.803 1.025 5.98z"/><path fill="#313162" stroke="#313162" stroke-width="5" stroke-miterlimit="10" d="M113.35 213.05c-.125.413-.26.696-.29.99-1.76 16.593.416 32.73 5.892 48.42 8.522 24.414 23.606 44.37 42.51 61.63 22.816 20.83 49.164 35.963 77.692 47.42 49.435 19.853 100.956 27.823 154.058 26.915 26.766-.458 53.23-3.33 79.378-8.96 36.652-7.896 71.466-20.6 103.417-40.5 23.973-14.93 45.014-33.088 60.717-56.84 14.764-22.332 22.604-46.71 21.114-73.747-.118-2.146-.708-2.59-2.726-2.112-36.656 8.68-72.675 19.388-107.644 33.497-2.434.982-3.03 1.655-1.697 4.31 4.696 9.345 2.735 20.54-4.642 27.86-6.96 6.907-15.4 10-25.18 8.99-2.24-.23-2.934.45-2.955 2.538-.037 3.828-1.157 7.425-3.225 10.585-6.617 10.11-16.056 15.51-28.14 15.48-3.83-.008-5.69.447-7.396 4.475-5.05 11.922-20.146 18.92-32.942 16.085-1.07-.237-2.063-.964-3.036.355-6.706 9.094-16.357 10.594-26.652 9.99-7.895-.46-15.138-3.342-22.082-6.95-1.4-.728-2.262-.713-3.522.35-17.153 14.46-40.337 10-50.775-9.762-.7-1.325-1.25-1.673-2.762-1.325-12.427 2.856-22.735-1.353-30.45-10.855-3.215-3.957-5.565-7.188-11.05-5.476-.19.06-.415.012-.622-.005-13.177-1.08-24.54-10.308-28.35-23.148-.55-1.858-1.23-2.564-3.356-2.366-19.553 1.816-34.967-17.254-28.405-35.968.5-1.423.262-2.22-1-3.055-3.55-2.353-7.216-4.498-11.03-6.38-33.214-16.396-69.072-24.21-104.848-32.44zm202.51-79.398c-5.3.907-10.13 2.074-14.822 3.647-16.885 5.66-33.923 6.148-51.264 2.323-25.28-5.577-49.922-13.19-73.988-22.686-2.148-.848-3.646-.856-5.533.777-6.68 5.784-13.292 11.62-19.307 18.113-15.97 17.235-28.198 36.617-34.32 59.526-1.593 5.957-1.62 6.003 4.463 7.62 20.143 5.357 40.578 9.628 60.385 16.24 18.718 6.247 37.284 12.843 53.864 23.886 1.49.99 2.154.243 3.144-.558 11.337-9.18 26.87-8.506 37.034 1.76 1.673 1.69 2.733 1.588 4.598.462 13.68-8.26 34.39-3.674 42.165 9.696.684 1.175 1.24 1.523 2.67 1.074 4.32-1.36 8.737-1.466 13.244-.807 14.055 2.056 23.798 12.038 24.943 25.814.18 2.17-.622 4.815.363 6.424 1.183 1.932 4.152.68 6.32 1.11 20.68 4.107 31.902 23.872 24.715 43.8-.57 1.58-.408 2.283 1.2 2.995 4.185 1.85 8.4 3.57 12.885 4.543 6.077 1.317 12.01.87 17.61-1.913 3.872-1.924 4-3.204 1.137-6.343-6.65-7.29-13.292-14.59-19.914-21.906-.69-.762-1.313-1.612-1.825-2.502-.708-1.23-.98-2.52.08-3.76 1.126-1.32 2.614-1.405 3.975-.775 1.388.642 2.668 1.602 3.85 2.595 8.282 6.958 16.032 14.488 23.635 22.172 1.1 1.112 2.17 2.263 3.752 2.673 7.18 1.86 13.86 1.066 19.456-4.17 5.247-4.91 5.393-9.838.588-15.254-8.344-9.406-16.76-18.747-25.12-28.136-.82-.92-1.548-1.948-2.177-3.01-.687-1.16-.648-2.382.22-3.497.823-1.06 1.99-1.043 3.132-.894 1.96.256 3.343 1.584 4.768 2.783 9.875 8.305 18.865 17.552 28.093 26.54 9.42 9.176 27.66 4.757 31.913-7.826 2.223-6.578-.626-11.476-5.043-15.9-11.315-11.328-22.64-22.645-33.963-33.967-1.027-1.027-2.145-1.993-2.7-3.385-.57-1.43-.71-2.87.544-4.03 1.125-1.04 2.44-.987 3.776-.394 1.834.814 3.32 2.126 4.79 3.437 12.482 11.136 25.024 22.206 37.38 33.48 4.407 4.022 9.35 5.55 15.125 4.963 10.226-1.04 17.317-9.344 15.56-18.296-.81-4.14-3.145-7.33-6.315-10.08-30.145-26.136-60.24-52.332-90.91-77.854-8.295-6.904-16.412-14.08-25.933-19.354-6.427-3.56-13.193-5.468-20.618-4.212-7.987 1.352-14.74 5.41-21.408 9.665-9.567 6.104-18.112 13.582-27.21 20.32-11.286 8.358-23.625 11.823-37.526 9.31-6.895-1.248-13.637-2.913-19.04-7.78-5.858-5.28-6.19-12.024-.912-17.83 2.236-2.46 4.53-4.868 6.793-7.303 7.13-7.672 14.26-15.342 21.68-23.328zm89.646-24.977c-34.14 0-53.065 7.098-72.866 24.54-12.266 10.806-22.883 23.228-34.058 35.1-4.888 5.193-4.52 6.7 2.115 9.396.958.39 1.95.725 2.954.964 11.08 2.632 21.656 1.836 31.32-4.765 3.26-2.226 6.487-4.5 9.636-6.874 9.86-7.435 19.07-15.768 29.908-21.852 16.186-9.087 32.118-9.326 47.765 1.453 5.393 3.716 10.695 7.54 15.762 11.683 32.735 26.77 64.53 54.644 96.48 82.335 1.754 1.52 3.046 1.808 5.152.88 19.653-8.662 39.826-15.935 60.302-22.387 17.613-5.55 35.396-10.462 53.44-14.404 2.067-.452 2.545-1.154 1.994-3.335-1.144-4.528-2.214-9.07-3.73-13.49-9.29-27.12-26.442-48.645-47.83-67.162-1.123-.972-2.006-1.003-3.317-.403-3.488 1.596-7.032 3.08-10.6 4.488-21.73 8.577-44.184 13.713-67.64 13.54-24.896-.185-48.328-6.474-70.842-16.977-16.977-7.923-34.885-12.605-45.944-12.73zm187.502 3.204c-1.133-.845-1.872-1.41-2.625-1.954-23.81-17.235-49.957-29.852-77.733-39.208-35.247-11.873-71.545-18.086-108.648-19.68-40.483-1.74-80.457 1.915-119.777 11.944-35.118 8.957-68.26 22.466-98.374 42.896-1.053.715-2.463 1.124-2.98 2.68 20.598 7.566 41.557 13.635 62.748 19.038 16.94 4.32 33.624 5.5 50.55-.032 10.65-3.48 21.584-6.016 32.89-6.338 1.276-.036 2.092-.82 2.97-1.53 16.53-13.405 35.686-19.95 56.687-21.49 23.553-1.725 45.885 3.464 67.023 13.374 30.51 14.303 62.07 19.705 95.38 13.437 14.306-2.693 28.047-7.163 41.89-13.138zM273.762 265.642c-.368-2.176-.603-4.098-1.025-5.978-2.056-9.16-11.734-14.98-20.82-12.566-9.624 2.557-15.175 12.283-12.272 21.502 3.78 12.003 17.973 16.127 27.69 8.056.734-.61 1.282-1.864 2.566-1.115 1.132.66 1.274 1.77 1.177 2.988-.148 1.863-.347 3.735-.288 5.596.553 17.362 16.554 26.53 31.633 18.157 1.004-.557 2.052-1.212 3.19-.542 1.15.676 1.14 1.883 1.024 3.057-.818 8.32 3.774 13.192 10.638 16.543 6.744 3.293 13.18 3.31 19.032-2.042 1.134-1.037 2.268-2.443 4.014-1.867 2.014.665 1.66 2.606 1.84 4.23 1.293 11.64 10.112 20.21 21.017 20.454 11.626.26 21.332-7.57 23.027-18.577 1.708-11.09-5.167-21.442-16.263-24.737-4.964-1.474-9.62-.52-14.303 1.1-1.493.515-3.128 1.67-4.642.194-1.507-1.47-.477-3.142.06-4.645.95-2.658 1.55-5.38 1.924-8.164 1.342-9.95-2.792-17.504-11.38-20.828-7.71-2.984-14.803-2.38-21.115 3.43-2.182 2.008-3.715 1.44-4.287-1.396-.164-.813-.235-1.645-.398-2.458-1.415-7.04-5.452-11.728-12.424-13.727-10.25-2.94-20.755 1-26.996 10.063-.727 1.052-1.203 2.338-2.618 3.273zm113.573 165.6c-47.64-.242-92.274-5.808-135.487-20.493-35.168-11.95-67.443-29.037-94.84-54.49-25.727-23.902-44.39-52.29-51.627-86.977-6.844-32.814-6.553-65.432 7.62-96.754 10.92-24.14 27.535-43.866 47.65-60.778 30.844-25.93 66.38-43.006 104.654-54.713 34.14-10.444 69.118-15.83 104.797-17.02 55.12-1.837 108.696 5.853 160.27 25.778 32.425 12.527 62.256 29.498 87.775 53.397 22.726 21.283 39.77 46.14 47.36 76.806 3.484 14.073 3.744 28.392 3.353 42.742-1.176 43.08-18.072 79.44-47.717 110.164-27.63 28.638-61.398 47.446-98.57 60.6-27.518 9.736-55.898 15.635-84.888 18.83-17.47 1.926-34.99 2.67-50.347 2.908z"/></svg>
<svg width="780" height="501" viewBox="0 0 780 501" id="paypal" y="4299"><title>amex-outline</title><path fill="#003087" d="M168.38 169.853c-8.4-5.774-19.36-8.668-32.88-8.668H83.152c-4.145 0-6.435 2.073-6.87 6.215L55.018 300.883c-.22 1.31.107 2.51.98 3.6.87 1.092 1.963 1.635 3.272 1.635h24.864c4.36 0 6.758-2.068 7.198-6.215l5.888-35.986c.215-1.744.982-3.162 2.29-4.254 1.31-1.09 2.945-1.803 4.908-2.13 1.963-.324 3.814-.487 5.562-.487 1.743 0 3.814.11 6.217.327 2.397.218 3.925.324 4.58.324 18.756 0 33.478-5.285 44.167-15.866 10.684-10.576 16.032-25.242 16.032-44.003 0-12.867-4.202-22.19-12.597-27.974zm-26.99 40.08c-1.095 7.635-3.927 12.65-8.507 15.05-4.58 2.402-11.124 3.597-19.63 3.597l-10.796.327 5.563-35.007c.434-2.397 1.85-3.597 4.252-3.597h6.218c8.72 0 15.05 1.257 18.975 3.76 3.924 2.51 5.233 7.802 3.924 15.87z"/><path fill="#009CDE" d="M720.794 161.185h-24.208c-2.405 0-3.82 1.2-4.253 3.6l-21.267 136.1-.328.653c0 1.096.437 2.127 1.31 3.11.87.98 1.964 1.47 3.27 1.47h21.596c4.138 0 6.43-2.068 6.87-6.215L725.05 166.09v-.325c0-3.053-1.423-4.58-4.256-4.58z"/><path fill="#003087" d="M428.31 213.856c0-1.088-.44-2.126-1.306-3.106-.875-.98-1.858-1.474-2.945-1.474h-25.193c-2.404 0-4.366 1.096-5.89 3.27l-34.678 51.04-14.396-49.074c-1.095-3.487-3.492-5.236-7.197-5.236h-24.54c-1.094 0-2.075.492-2.942 1.474-.875.98-1.31 2.02-1.31 3.106 0 .44 2.128 6.87 6.38 19.303 4.252 12.434 8.832 25.848 13.74 40.244 4.908 14.393 7.47 22.03 7.688 22.898-17.886 24.43-26.826 37.517-26.826 39.26 0 2.837 1.416 4.253 4.253 4.253h25.192c2.398 0 4.36-1.088 5.89-3.27l83.426-120.4c.434-.432.652-1.192.652-2.29z"/><path fill="#009CDE" d="M662.887 209.276H638.02c-3.054 0-4.903 3.6-5.557 10.798-5.677-8.72-16.03-13.088-31.083-13.088-15.704 0-29.066 5.89-40.077 17.668-11.016 11.778-16.52 25.63-16.52 41.55 0 12.872 3.76 23.122 11.284 30.753 7.525 7.64 17.612 11.45 30.266 11.45 6.323 0 12.757-1.31 19.3-3.925 6.544-2.617 11.665-6.105 15.38-10.47 0 .22-.223 1.2-.656 2.944-.44 1.748-.655 3.06-.655 3.926 0 3.494 1.414 5.234 4.254 5.234h22.576c4.138 0 6.54-2.068 7.194-6.215l13.415-85.39c.216-1.308-.11-2.506-.98-3.598-.876-1.09-1.964-1.636-3.273-1.636zm-42.694 64.453c-5.562 5.452-12.268 8.177-20.12 8.177-6.328 0-11.45-1.742-15.377-5.234-3.927-3.484-5.89-8.283-5.89-14.395 0-8.065 2.726-14.886 8.18-20.447 5.447-5.56 12.214-8.342 20.285-8.342 6.102 0 11.174 1.8 15.213 5.397 4.032 3.6 6.054 8.563 6.054 14.89 0 7.85-2.783 14.504-8.344 19.954z"/><path fill="#003087" d="M291.23 209.276h-24.864c-3.058 0-4.908 3.6-5.563 10.798-5.89-8.72-16.25-13.088-31.08-13.088-15.705 0-29.066 5.89-40.08 17.668-11.015 11.778-16.52 25.63-16.52 41.55 0 12.872 3.763 23.122 11.288 30.753 7.526 7.64 17.61 11.45 30.263 11.45 6.104 0 12.433-1.31 18.975-3.925 6.543-2.617 11.778-6.105 15.704-10.47-.875 2.618-1.31 4.91-1.31 6.87 0 3.494 1.418 5.234 4.254 5.234h22.574c4.14 0 6.543-2.068 7.198-6.215l13.413-85.39c.216-1.308-.11-2.506-.98-3.598-.873-1.09-1.963-1.636-3.27-1.636zm-42.695 64.615c-5.563 5.35-12.382 8.017-20.447 8.017-6.33 0-11.4-1.742-15.214-5.234-3.82-3.484-5.726-8.283-5.726-14.395 0-8.065 2.725-14.886 8.18-20.447 5.45-5.56 12.21-8.342 20.284-8.342 6.104 0 11.175 1.8 15.214 5.397 4.032 3.6 6.052 8.563 6.052 14.89 0 8.07-2.78 14.778-8.343 20.116z"/><path fill="#009CDE" d="M540.036 169.853c-8.398-5.774-19.356-8.668-32.88-8.668H455.14c-4.365 0-6.765 2.073-7.198 6.215l-21.265 133.483c-.22 1.31.106 2.51.98 3.6.867 1.092 1.963 1.635 3.272 1.635h26.826c2.617 0 4.36-1.416 5.235-4.252l5.89-37.95c.216-1.743.98-3.16 2.29-4.253 1.31-1.09 2.943-1.803 4.908-2.13 1.962-.324 3.813-.487 5.562-.487 1.743 0 3.814.11 6.214.327 2.4.218 3.93.324 4.58.324 18.76 0 33.48-5.285 44.168-15.866 10.687-10.576 16.03-25.242 16.03-44.003.002-12.867-4.2-22.19-12.594-27.974zm-33.534 53.82c-4.8 3.27-11.997 4.906-21.592 4.906l-10.47.326 5.563-35.007c.432-2.398 1.85-3.598 4.252-3.598h5.887c4.797 0 8.614.218 11.454.653 2.83.44 5.56 1.8 8.178 4.09 2.62 2.29 3.926 5.617 3.926 9.978 0 9.162-2.402 15.376-7.198 18.65z"/></svg>
<svg width="750" height="471" viewBox="0 0 750 471" id="visa" y="4800"><title>Slice 1</title><path fill="#0E4595" d="M278.198 334.228l33.36-195.763h53.358l-33.384 195.763h-53.334zM524.307 142.687c-10.57-3.966-27.135-8.222-47.822-8.222-52.725 0-89.863 26.55-90.18 64.604-.297 28.128 26.514 43.82 46.754 53.184 20.77 9.597 27.75 15.716 27.65 24.283-.132 13.123-16.585 19.116-31.923 19.116-21.355 0-32.7-2.967-50.225-10.274l-6.877-3.113-7.488 43.823c12.463 5.466 35.508 10.2 59.438 10.445 56.09 0 92.502-26.248 92.916-66.884.2-22.27-14.015-39.215-44.8-53.187-18.65-9.056-30.072-15.1-29.95-24.27 0-8.136 9.667-16.837 30.558-16.837 17.447-.27 30.088 3.534 39.936 7.5l4.78 2.26 7.233-42.43M661.615 138.464h-41.23c-12.773 0-22.332 3.486-27.94 16.234L513.2 334.1h56.03s9.16-24.12 11.233-29.418c6.123 0 60.555.084 68.336.084 1.595 6.854 6.49 29.334 6.49 29.334h49.513l-43.188-195.636zm-65.417 126.408c4.414-11.28 21.26-54.724 21.26-54.724-.314.52 4.38-11.334 7.074-18.684l3.607 16.878s10.216 46.73 12.35 56.527H596.2v.002zM232.903 138.464l-52.24 133.496-5.564-27.13c-9.727-31.273-40.026-65.156-73.9-82.12l47.768 171.205 56.455-.064 84.004-195.385h-56.524"/><path fill="#F2AE14" d="M131.92 138.464H45.88l-.683 4.073c66.94 16.204 111.232 55.363 129.618 102.415l-18.71-89.96c-3.228-12.396-12.596-16.096-24.185-16.528"/></svg>
</svg>