<?xml version="1.0" encoding="utf-8"?>
<!-- Generator: Adobe Illustrator 17.0.0, SVG Export Plug-In . SVG Version: 6.00 Build 0)  -->
<!DOCTYPE svg PUBLIC "-//W3C//DTD SVG 1.1//EN" "http://www.w3.org/Graphics/SVG/1.1/DTD/svg11.dtd">
<svg version="1.1" id="Layer_1" xmlns:sketch="http://www.bohemiancoding.com/sketch/ns"
	 xmlns="http://www.w3.org/2000/svg" xmlns:xlink="http://www.w3.org/1999/xlink" x="0px" y="0px" width="780px" height="501px"
	 viewBox="0 0 780 501" enable-background="new 0 0 780 501" xml:space="preserve">
<title>amex-outline</title>
<desc>Created with Sketch.</desc>
<g>
	<path fill="#231F20" d="M373.55,32.85c10.729,0,21.458,0,32.186,0c0.237,0.758,0.88,0.624,1.449,0.666
		c26.654,1.981,52.163,8.602,75.861,20.856c65.348,33.792,104.212,87.052,115.981,159.866c0.708,4.382,0.467,8.903,1.972,13.16
		c0,11.206,0,22.411,0,33.617c-0.929,0.32-0.66,1.135-0.722,1.795c-2.6,28.048-9.969,54.771-23.57,79.463
		c-34.266,62.209-86.506,99.182-156.741,110.553c-4.735,0.767-9.601,0.57-14.232,2.023c-10.967,0-21.934,0-32.902,0
		c-0.425-1.093-1.403-0.658-2.153-0.729c-28.169-2.671-55.019-10.123-79.753-23.874c-61.92-34.425-98.757-86.662-109.961-156.794
		c-0.662-4.144-0.323-8.451-1.968-12.436c0-11.682,0-23.365,0-35.047c1.162-0.36,0.694-1.378,0.771-2.102
		c0.998-9.348,2.386-18.635,4.523-27.793c19.865-85.106,89.721-149.019,176.107-161.262C364.785,34.191,369.299,34.362,373.55,32.85
		z M237.973,245.499c0.148,14.257,2.831,24.613,8.31,34.251c1.167,2.054,2.055,2.754,4.611,1.651
		c35.157-15.171,70.369-30.219,105.616-45.181c2.622-1.113,3.235-2.141,2.387-4.957c-8.789-29.194-37.84-48.055-67.512-43.669
		C260.487,192.161,237.992,217.898,237.973,245.499z M370.803,220.958c0,18.709,0.008,37.417-0.003,56.126
		c-0.007,11.567,3.991,20.692,15.348,25.383c5.714,2.36,11.441,4.69,17.115,7.142c1.606,0.694,2.436,0.636,3.153-1.18
		c2.577-6.522,5.245-13.011,8.038-19.443c0.752-1.732,0.576-2.413-1.244-3.118c-5.318-2.06-10.505-4.46-15.839-6.475
		c-2.182-0.824-2.754-2.015-2.731-4.225c0.109-10.485,0.049-20.972,0.049-31.459c0-26.931-0.041-53.862,0.062-80.793
		c0.011-2.761-0.632-3.662-3.499-3.54c-5.71,0.242-11.442,0.218-17.154,0.007c-2.644-0.098-3.383,0.572-3.364,3.304
		C370.865,182.11,370.803,201.534,370.803,220.958z M480.37,310.355c3.195,0.122,6.498-0.22,9.813-0.692
		c23.999-3.415,45.155-23.165,50.23-46.88c0.35-1.634,0.537-2.704-1.549-3.07c-7.032-1.234-14.061-2.498-21.057-3.916
		c-1.835-0.372-2.262,0.321-2.616,1.849c-0.7,3.025-1.849,5.897-3.381,8.613c-8.125,14.4-23.643,21.126-40.2,17.232
		c-2.515-0.591-3.593-0.12-4.36,2.402c-1.869,6.147-3.913,12.249-6.144,18.274c-0.932,2.518-0.093,3.36,2.178,3.929
		C468.85,309.49,474.446,310.562,480.37,310.355z M439.679,202.544c-0.82,0.702-1.554,1.284-2.235,1.922
		c-25.327,23.732-24.964,65.824,0.706,89.363c1.527,1.4,2.342,1.401,3.644-0.178c4.166-5.052,8.341-10.105,12.757-14.935
		c1.869-2.044,1.65-3.219-0.111-5.182c-13.835-15.423-13.598-35.025,0.579-50.111c1.421-1.512,1.288-2.33,0.003-3.732
		c-4.665-5.089-9.214-10.285-13.807-15.44C440.741,203.72,440.263,203.193,439.679,202.544z M479.945,187.198
		c-5.705-0.253-11.88,0.89-17.977,2.682c-1.763,0.518-2.217,1.195-1.533,3.042c2.435,6.582,4.722,13.22,6.977,19.866
		c0.545,1.605,1.211,1.851,2.854,1.354c18.672-5.646,38.994,4.996,44.693,24.621c0.712,2.451,1.764,2.608,3.759,2.172
		c6.163-1.347,12.309-2.821,18.527-3.846c3.091-0.51,3.469-1.598,2.703-4.415C532.639,205.804,508.45,187.2,479.945,187.198z
		 M304.436,310.398c10.322-0.063,23.709-5.052,35.436-14.774c2.372-1.967,3.039-3.194,0.478-5.611
		c-4.757-4.49-9.216-9.298-13.726-14.044c-1.107-1.165-1.79-1.342-3.157-0.217c-12.705,10.455-26.483,12.04-41.153,4.53
		c-1.76-0.901-2.388-0.535-3.29,0.944c-3.529,5.787-7.078,11.565-10.811,17.22c-1.283,1.944-1.154,2.822,0.942,3.967
		C278.637,307.592,288.698,310.406,304.436,310.398z"/>
	<path fill="#FCFCFC" d="M237.973,245.499c0.02-27.601,22.515-53.338,53.412-57.905c29.672-4.386,58.722,14.474,67.512,43.669
		c0.848,2.816,0.235,3.844-2.387,4.957c-35.247,14.963-70.458,30.01-105.616,45.181c-2.556,1.103-3.444,0.403-4.611-1.651
		C240.804,270.111,238.12,259.756,237.973,245.499z M326.84,225.388c-9.027-11.291-24.948-15.59-38.977-10.758
		c-14.286,4.921-24.227,18.691-24.301,33.663c-0.021,4.168-0.016,4.179,3.702,2.595c13.982-5.958,27.964-11.916,41.939-17.89
		C315.061,230.494,320.904,227.951,326.84,225.388z"/>
	<path fill="#FCFCFC" d="M370.803,220.958c0-19.424,0.061-38.848-0.07-58.271c-0.018-2.732,0.72-3.402,3.364-3.304
		c5.712,0.211,11.445,0.235,17.154-0.007c2.867-0.121,3.51,0.78,3.499,3.54c-0.103,26.931-0.062,53.862-0.062,80.793
		c0,10.486,0.061,20.973-0.049,31.459c-0.023,2.21,0.548,3.401,2.731,4.225c5.334,2.014,10.521,4.414,15.839,6.475
		c1.82,0.705,1.996,1.386,1.244,3.118c-2.793,6.432-5.461,12.921-8.038,19.443c-0.717,1.816-1.548,1.873-3.153,1.18
		c-5.674-2.452-11.402-4.782-17.115-7.142c-11.357-4.691-15.354-13.816-15.348-25.383
		C370.811,258.376,370.803,239.667,370.803,220.958z"/>
	<path fill="#EC4324" d="M480.37,310.355c-5.924,0.207-11.52-0.865-17.086-2.26c-2.271-0.569-3.11-1.41-2.178-3.929
		c2.231-6.025,4.275-12.127,6.144-18.274c0.767-2.522,1.845-2.993,4.36-2.402c16.557,3.894,32.075-2.832,40.2-17.232
		c1.532-2.716,2.681-5.588,3.381-8.613c0.354-1.527,0.781-2.221,2.616-1.849c6.997,1.418,14.025,2.682,21.057,3.916
		c2.086,0.366,1.898,1.436,1.549,3.07c-5.075,23.715-26.231,43.464-50.23,46.88C486.868,310.135,483.565,310.476,480.37,310.355z"/>
	<path fill="#02A3DD" d="M439.679,202.544c0.584,0.649,1.062,1.176,1.535,1.707c4.593,5.155,9.141,10.351,13.807,15.44
		c1.285,1.402,1.418,2.22-0.003,3.732c-14.177,15.086-14.414,34.688-0.579,50.111c1.761,1.963,1.98,3.137,0.111,5.182
		c-4.416,4.83-8.592,9.883-12.757,14.935c-1.302,1.579-2.117,1.578-3.644,0.178c-25.669-23.539-26.032-65.631-0.706-89.363
		C438.125,203.828,438.859,203.246,439.679,202.544z"/>
	<path fill="#FCEF03" d="M479.945,187.198c28.505,0.002,52.694,18.606,60.003,45.477c0.766,2.818,0.388,3.906-2.703,4.415
		c-6.218,1.025-12.364,2.498-18.527,3.846c-1.996,0.436-3.048,0.28-3.759-2.172c-5.699-19.625-26.021-30.268-44.693-24.621
		c-1.644,0.497-2.31,0.251-2.854-1.354c-2.255-6.646-4.542-13.285-6.977-19.866c-0.684-1.847-0.229-2.524,1.533-3.042
		C468.065,188.088,474.24,186.945,479.945,187.198z"/>
	<path fill="#FCFCFC" d="M304.436,310.398c-15.739,0.007-25.799-2.806-35.282-7.985c-2.096-1.145-2.225-2.023-0.942-3.967
		c3.733-5.655,7.283-11.434,10.811-17.22c0.902-1.479,1.53-1.845,3.29-0.944c14.67,7.51,28.448,5.924,41.153-4.53
		c1.367-1.125,2.05-0.947,3.157,0.217c4.51,4.746,8.969,9.554,13.726,14.044c2.561,2.418,1.894,3.645-0.478,5.611
		C328.146,305.347,314.758,310.335,304.436,310.398z"/>
	<path fill="#231F20" d="M326.84,225.388c-5.936,2.563-11.779,5.106-17.638,7.611c-13.975,5.974-27.957,11.933-41.939,17.89
		c-3.717,1.584-3.722,1.572-3.702-2.595c0.074-14.972,10.015-28.742,24.301-33.663C301.892,209.797,317.813,214.097,326.84,225.388z
		"/>
</g>
</svg>
