<?xml version="1.0" encoding="utf-8"?>
<!-- Generator: Adobe Illustrator 17.0.0, SVG Export Plug-In . SVG Version: 6.00 Build 0)  -->
<!DOCTYPE svg PUBLIC "-//W3C//DTD SVG 1.1//EN" "http://www.w3.org/Graphics/SVG/1.1/DTD/svg11.dtd">
<svg version="1.1" id="Layer_1" xmlns:sketch="http://www.bohemiancoding.com/sketch/ns"
	 xmlns="http://www.w3.org/2000/svg" xmlns:xlink="http://www.w3.org/1999/xlink" x="0px" y="0px" width="752px" height="471px"
	 viewBox="0 0 752 471" enable-background="new 0 0 752 471" xml:space="preserve">
<title>Slice 1</title>
<desc>Created with Sketch.</desc>
<g>
	<path fill="#B2131B" d="M435.684,70c0.69,0,1.38,0,2.07,0c42.86-0.012,85.72-0.016,128.58-0.038
		c44.617-0.023,89.233-0.063,133.849-0.095c14.998-0.011,29.995-0.02,44.993-0.029c2.814-0.002,2.844,0.006,2.269,2.794
		c-1.897,9.201-3.834,18.394-5.724,27.597c-5.973,29.082-11.927,58.167-17.896,87.25c-5.83,28.407-11.671,56.812-17.506,85.219
		c-4.953,24.112-10.016,48.201-14.812,72.344c-2.549,12.831-8.373,23.713-18.257,32.237c-6.185,5.334-13.494,8.876-21.253,11.339
		c-11.057,3.51-22.392,5.298-34.031,5.295c-93.188-0.02-186.376,0.01-279.563,0.028c-69.906,0.013-139.813,0.029-209.719,0.047
		c-41.04,0.011-82.08,0.03-123.12,0.045c-2.813,0.001-2.84-0.006-2.275-2.774c2.645-12.948,5.314-25.892,7.959-38.84
		c5.967-29.211,11.919-58.425,17.89-87.635c6.597-32.278,13.189-64.556,19.82-96.827c3.34-16.258,6.822-32.486,10.129-48.75
		c4.635-22.802,19.037-36.598,40.449-43.776c10.685-3.582,21.701-5.371,33.053-5.362c78.692,0.06,157.384,0.004,236.075-0.012
		c22.34-0.005,44.68-0.001,67.02-0.001C435.684,70.036,435.684,70.018,435.684,70z M386.116,212.468
		c-0.045-0.044-0.089-0.089-0.132-0.134c0.631-3.573,1.223-7.153,1.915-10.714c0.221-1.14,0.055-1.557-1.222-1.531
		c-3.762,0.077-7.529,0.098-11.29-0.01c-1.332-0.038-1.504,0.564-1.652,1.622c-2.013,14.458-4.403,28.857-7.014,43.216
		c-1.916,10.535-4.065,21.027-6.156,31.53c-0.294,1.477-0.128,2.095,1.634,2.036c4.136-0.138,8.281-0.105,12.419-0.009
		c1.351,0.031,1.815-0.32,1.932-1.706c1.066-12.632,3.475-25.061,5.8-37.5c1.34-7.169,2.958-14.263,7.512-20.227
		c4.038-5.289,8.861-9.093,16.093-8.542c2.437,0.186,4.874,0.119,7.194,1.022c0.77,0.3,1.27,0.277,1.437-0.737
		c0.507-3.089,1.092-6.165,1.631-9.248c0.083-0.477,0.251-1.031-0.409-1.278c-2.943-1.1-5.97-2.244-9.11-1.934
		c-7.017,0.693-12.682,3.983-16.991,9.624C388.539,209.474,387.589,211.183,386.116,212.468z M577.05,212.126
		c-0.056-0.057-0.112-0.114-0.169-0.171c0.561-3.457,1.083-6.92,1.703-10.366c0.22-1.224-0.181-1.515-1.346-1.495
		c-3.575,0.061-7.153,0.08-10.727-0.008c-1.334-0.033-1.788,0.325-1.988,1.716c-1.942,13.519-4.086,27.009-6.565,40.44
		c-2.148,11.639-4.45,23.251-6.754,34.861c-0.243,1.225,0.113,1.359,1.15,1.351c4.58-0.036,9.16-0.033,13.74-0.001
		c0.909,0.006,1.418-0.161,1.348-1.226c-0.276-4.174,0.618-8.238,1.285-12.314c1.973-12.046,3.305-24.227,6.862-35.957
		c2.467-8.134,7.157-14.556,15.254-18.001c0.396-0.168,0.829-0.396,1.233-0.375c3.972,0.214,8.035-0.681,11.895,0.946
		c0.902,0.38,1.435,0.164,1.494-0.918c0.165-3.017,0.873-5.948,1.537-8.877c0.236-1.039-0.105-1.374-1.025-1.759
		c-2.956-1.236-5.999-1.659-9.177-1.462c-4.877,0.301-9.064,2.222-12.653,5.432C581.443,206.358,579.198,209.208,577.05,212.126z
		 M123.229,212.859c-0.001,0.199-0.002,0.398-0.002,0.597c-8.025-0.209-16.05-0.448-24.076-0.599
		c-1.612-0.03-1.103-0.981-0.961-1.75c2.536-13.733,5.075-27.467,7.677-41.187c0.247-1.301-0.145-1.463-1.279-1.452
		c-5.144,0.047-10.289,0.053-15.433-0.004c-1.131-0.012-1.493,0.391-1.663,1.462c-1.585,9.961-3.294,19.903-4.831,29.871
		c-2.731,17.709-5.846,35.348-9.345,52.921c-1.541,7.739-3.045,15.486-4.548,23.232c-0.482,2.483-0.456,2.489,2.011,2.489
		c4.831,0,9.663-0.044,14.492,0.031c1.197,0.018,1.634-0.382,1.811-1.512c0.861-5.509,1.749-11.013,2.688-16.509
		c1.992-11.67,4.028-23.333,6.027-35.001c0.202-1.181,0.57-1.79,2.009-1.784c15.496,0.063,30.993,0.057,46.49,0.012
		c1.565-0.005,1.907,0.436,1.614,1.964c-2.132,11.134-4.197,22.281-6.261,33.428c-1.083,5.851-2.104,11.714-3.195,17.563
		c-0.241,1.293-0.117,1.885,1.486,1.85c5.079-0.112,10.163-0.065,15.245-0.022c1.04,0.009,1.547-0.195,1.736-1.367
		c2.083-12.863,4.205-25.72,6.365-38.57c3.841-22.855,8.057-45.642,12.535-68.38c0.326-1.655-0.186-1.69-1.478-1.675
		c-4.642,0.056-9.285,0.022-13.928,0.022c-2.753,0-2.754,0-3.251,2.798c-0.153,0.863-0.299,1.728-0.445,2.593
		c-2.113,12.476-4.436,24.918-6.221,37.449c-0.161,1.133-0.518,1.571-1.749,1.562C138.909,212.83,131.069,212.859,123.229,212.859z
		 M652.382,266.412c-0.481,3.877-0.873,7.285-1.345,10.683c-0.128,0.923-0.074,1.376,1.042,1.363
		c4.139-0.049,8.28-0.049,12.419,0.001c1.065,0.013,1.237-0.461,1.222-1.361c-0.025-1.503-0.05-3.017,0.095-4.509
		c2.17-22.412,6.308-44.52,10.399-66.632c2.346-12.683,4.841-25.338,7.297-38c0.239-1.231,0.103-1.793-1.385-1.761
		c-4.326,0.093-8.656,0.065-12.983,0.01c-1.064-0.014-1.567,0.21-1.7,1.378c-1.225,10.773-3.272,21.421-4.924,32.129
		c-0.187,1.215-0.395,1.612-1.715,1.133c-5.429-1.968-11.151-2.623-16.827-2.515c-7.149,0.136-14.125,1.449-20.621,4.905
		c-7.241,3.852-12.562,9.493-16.358,16.591c-4.834,9.039-7.845,18.655-8.452,28.967c-0.387,6.564-0.132,13.015,2.526,19.161
		c1.646,3.805,4.259,6.794,7.938,8.697c7.607,3.936,15.707,4.311,23.992,3.031c5.371-0.83,10.287-2.627,14.214-6.601
		C649.074,271.199,650.401,268.921,652.382,266.412z M227.879,207.718c0.457-2.273,0.814-4.112,1.198-5.945
		c0.23-1.099,0.149-1.733-1.31-1.691c-3.637,0.105-7.279,0.089-10.917,0.003c-1.182-0.028-1.49,0.481-1.649,1.48
		c-1.373,8.601-2.779,17.196-4.165,25.795c-3.16,19.609-6.737,39.144-10.395,58.665c-1.615,8.619-3.32,17.222-5.014,25.826
		c-0.223,1.134-0.137,1.667,1.273,1.638c4.391-0.09,8.785-0.085,13.176-0.002c1.332,0.025,1.767-0.468,1.826-1.701
		c0.063-1.313,0.225-2.625,0.425-3.926c1.447-9.414,2.886-18.83,4.391-28.234c0.487-3.043,0.735-6.136,1.575-9.248
		c0.861,0.693,1.061,1.593,1.565,2.283c1.847,2.529,3.781,4.881,6.843,6.17c4.303,1.811,8.74,2.069,13.271,1.732
		c10.845-0.806,20.1-4.812,27.129-13.412c6.525-7.984,9.806-17.404,12.004-27.238c1.814-8.117,2.648-16.307,0.219-24.538
		c-2.376-8.05-7.499-13.321-15.521-15.56c-9.808-2.738-19.332-1.761-28.449,2.867C232.773,203.991,230.541,205.819,227.879,207.718z
		 M524.682,266.542c-0.071,0.616-0.133,1.234-0.215,1.849c-0.372,2.798-0.648,5.602-0.751,8.426c-0.04,1.11,0.109,1.7,1.493,1.659
		c3.635-0.108,7.277-0.091,10.914-0.006c1.213,0.029,1.452-0.417,1.473-1.502c0.059-3.072,0.003-6.171,0.394-9.207
		c1.343-10.439,3.143-20.809,4.904-31.186c1.348-7.944,3.569-15.762,3.257-23.961c-0.178-4.672-2.344-7.966-6.196-10.185
		c-6.67-3.843-14.152-4.009-21.523-4.058c-8.525-0.057-16.954,1.798-25.501,1.734c-0.821-0.006-1.217,0.23-1.41,1.093
		c-0.777,3.481-1.617,6.949-2.482,10.41c-0.272,1.086-0.061,1.299,1.06,1.028c3.406-0.824,6.824-1.619,10.267-2.269
		c7.599-1.434,15.245-2.5,22.907-0.574c4.326,1.088,8.064,3.539,7.628,9.25c-0.187,2.453-0.634,4.834-1.025,7.24
		c-0.176,1.083-0.61,1.533-1.828,1.518c-5.143-0.065-10.288,0.077-15.43,0c-6.22-0.094-12.317,0.152-18.314,2.297
		c-8.439,3.018-14.915,7.991-18.596,16.339c-2.51,5.694-2.9,11.654-2.192,17.681c0.974,8.288,5.716,13.215,13.877,15.154
		c4.168,0.99,8.312,0.982,12.508,0.884c5.116-0.12,9.846-1.522,14.275-4.088C518.328,273.661,521.46,270.202,524.682,266.542z
		 M329.207,236.127c8.279,0,16.558-0.001,24.838,0.002c0.872,0,1.674,0.16,1.949-1.129c1.31-6.144,2.488-12.318,2.074-18.624
		c-0.373-5.681-2.896-10.254-7.746-13.483c-4.161-2.77-8.86-3.542-13.665-4.196c-7.478-1.019-14.864-0.204-21.933,1.957
		c-9.933,3.037-17.462,9.298-22.073,18.844c-5.735,11.871-8.482,24.381-7.535,37.505c0.427,5.921,2.59,11.429,7.149,15.734
		c4.915,4.641,10.95,6.408,17.4,7.134c12.076,1.36,23.865-0.65,35.593-3.231c0.527-0.116,1.096-0.148,1.231-0.915
		c0.638-3.638,1.318-7.269,1.991-10.901c0.198-1.069-0.173-1.185-1.091-0.778c-8.725,3.871-17.815,5.611-27.404,5.309
		c-4.172-0.131-7.886-1.205-11.439-3.091c-1.76-0.934-3.195-2.35-4.272-4.12c-2.174-3.575-3.153-7.388-3.145-11.593
		c0.008-4.158,0.413-8.248,1.004-12.348c0.212-1.469,0.766-1.917,2.243-1.993C312.651,235.79,320.927,235.791,329.207,236.127z
		 M464.072,264.339c-0.45,0.086-0.647,0.085-0.808,0.16c-8.109,3.766-16.61,5.497-25.543,4.744
		c-2.558-0.216-4.979-1.039-7.111-2.597c-4.857-3.549-6.309-8.705-6.611-14.295c-0.423-7.837,0.753-15.495,3.169-22.954
		c1.454-4.489,3.385-8.792,6.195-12.582c4.522-6.102,11.274-7.757,18.281-7.99c6.839-0.228,13.6,0.984,20.087,3.315
		c1.051,0.378,1.436,0.215,1.602-0.851c0.513-3.28,1.05-6.557,1.609-9.83c0.191-1.122-0.024-1.724-1.348-1.839
		c-7.926-0.688-15.832-1.636-23.819-1.091c-4.827,0.329-9.641,0.835-14.198,2.483c-11.504,4.16-18.354,12.903-22.678,23.875
		c-3.688,9.357-5.614,19.05-5.15,29.2c0.206,4.508,0.725,8.857,2.791,12.903c2.877,5.634,7.013,9.868,13.306,11.584
		c12.501,3.409,24.717,1.428,36.855-1.984c0.652-0.183,1.143-0.495,1.31-1.187C462.877,271.816,463.551,268.195,464.072,264.339z
		 M192.882,200.117c0,0.072,0,0.144,0,0.216c-1.881,0-3.778,0.159-5.637-0.042c-2.066-0.223-2.697,0.558-2.964,2.549
		c-1.756,13.095-3.907,26.131-6.288,39.127c-2.143,11.698-4.304,23.393-6.836,35.015c-0.199,0.915-0.251,1.501,1.042,1.482
		c4.576-0.067,9.154-0.045,13.731-0.01c0.941,0.007,1.371-0.307,1.432-1.264c0.088-1.375,0.207-2.754,0.418-4.115
		c3.707-24.008,7.845-47.939,12.911-71.702c0.234-1.095-0.046-1.293-1.041-1.271C197.395,200.151,195.138,200.117,192.882,200.117z
		 M205.693,174.359c0.505-2.872-0.478-5.284-3.416-6.724c-1.668-0.817-3.447-0.318-5.17-0.37c-2.086-0.063-3.914,0.888-5.43,2.189
		c-3.848,3.301-3.905,7.912-3.8,12.428c0.026,1.113,0.859,2.442,1.716,3.255c2.341,2.219,9.338,1.796,11.817-0.416
		C204.453,182.007,205.982,178.707,205.693,174.359z"/>
	<path fill="#B2131B" d="M645.079,209.09c4.893-0.702,9.432,0.721,13.974,2.198c1.002,0.326,1.389,0.744,1.173,1.858
		c-2.472,12.778-4.25,25.693-7.591,38.298c-1.731,6.533-4.945,12.074-11.031,15.454c-6.389,3.547-16.089,4.406-22.218-1.089
		c-1.93-1.73-2.933-4.035-3.56-6.464c-1.336-5.183-0.936-10.448-0.383-15.68c0.9-8.514,3.367-16.524,8.073-23.756
		c3.523-5.414,8.278-9.179,14.643-10.67C640.434,208.704,642.781,209.174,645.079,209.09z"/>
	<path fill="#B2131B" d="M263.855,228.982c-0.069,12.172-2.902,22.129-8.596,31.288c-5.211,8.382-15.206,11.281-23.948,9.145
		c-6.361-1.555-10.436-7.766-9.954-14.298c0.74-10.026,3.363-19.73,4.881-29.621c0.36-2.349,0.944-4.665,1.282-7.017
		c0.183-1.271,0.717-2.16,1.694-2.973c3.411-2.837,7.059-5.214,11.483-6.096c5.812-1.158,11.497-0.821,16.693,2.25
		c1.734,1.024,3.17,2.604,4.166,4.489C263.932,220.646,264.4,225.421,263.855,228.982z"/>
	<path fill="#B2131B" d="M516.626,236.88c3.133,0,5.766,0.005,8.398-0.002c2.109-0.006,2.975-0.177,2.364,2.698
		c-1.513,7.115-3.016,14.237-6.932,20.486c-2.339,3.732-5.773,6.377-9.941,7.923c-2.762,1.024-5.581,1.744-8.593,1.746
		c-1.921,0.002-3.703-0.362-5.52-0.864c-3.549-0.98-5.972-3.283-7.101-6.637c-0.891-2.648-1.032-5.605-0.416-8.318
		c1.031-4.537,2.797-8.757,6.534-11.957c2.162-1.852,4.61-2.945,7.192-3.874C507.333,236.383,512.262,236.971,516.626,236.88z"/>
	<path fill="#B2131B" d="M323.586,227.147c-5.771,0-11.542-0.036-17.312,0.025c-1.413,0.015-1.719-0.297-1.177-1.661
		c1.612-4.06,2.962-8.153,6.345-11.325c3.117-2.923,6.644-4.623,10.754-5.225c3.787-0.555,7.574-0.702,11.407-0.043
		c6.257,1.077,9.93,5.447,9.57,11.799c-0.096,1.688-0.394,3.364-0.488,5.052c-0.069,1.232-0.641,1.492-1.785,1.481
		c-5.771-0.055-11.542-0.025-17.313-0.025C323.586,227.2,323.586,227.174,323.586,227.147z"/>
	<path fill="#B2131B" d="M577.05,212.126c-0.089,0.081-0.178,0.163-0.267,0.244c0.033-0.138,0.066-0.276,0.099-0.414
		C576.938,212.012,576.994,212.069,577.05,212.126z"/>
	<path fill="#B2131B" d="M386.116,212.468c-0.028,0.181,0.026,0.507-0.247,0.41c-0.165-0.059-0.144-0.4,0.116-0.543
		C386.027,212.38,386.071,212.424,386.116,212.468z"/>
</g>
</svg>
