<?xml version="1.0" encoding="utf-8"?>
<!-- Generator: Adobe Illustrator 17.0.0, SVG Export Plug-In . SVG Version: 6.00 Build 0)  -->
<!DOCTYPE svg PUBLIC "-//W3C//DTD SVG 1.1//EN" "http://www.w3.org/Graphics/SVG/1.1/DTD/svg11.dtd">
<svg version="1.1" id="Layer_1" xmlns:sketch="http://www.bohemiancoding.com/sketch/ns"
	 xmlns="http://www.w3.org/2000/svg" xmlns:xlink="http://www.w3.org/1999/xlink" x="0px" y="0px" width="752px" height="471px"
	 viewBox="0 0 752 471" enable-background="new 0 0 752 471" xml:space="preserve">
<title>Slice 1</title>
<desc>Created with Sketch.</desc>
<g>
	<path fill="#FDE600" d="M113.349,213.05c35.776,8.229,71.634,16.044,104.847,32.437c3.815,1.883,7.481,4.028,11.032,6.382
		c1.262,0.836,1.498,1.632,0.999,3.055c-6.562,18.714,8.852,37.784,28.405,35.968c2.125-0.197,2.806,0.508,3.357,2.365
		c3.809,12.84,15.171,22.068,28.349,23.148c0.207,0.017,0.433,0.064,0.621,0.005c5.485-1.713,7.836,1.518,11.05,5.476
		c7.716,9.502,18.024,13.711,30.452,10.855c1.513-0.348,2.062,0,2.762,1.325c10.438,19.763,33.622,24.222,50.775,9.761
		c1.261-1.063,2.123-1.078,3.522-0.35c6.944,3.609,14.187,6.49,22.082,6.952c10.295,0.602,19.946-0.897,26.652-9.991
		c0.972-1.319,1.964-0.592,3.036-0.355c12.796,2.836,27.892-4.163,32.942-16.085c1.706-4.028,3.567-4.483,7.395-4.474
		c12.085,0.027,21.525-5.371,28.141-15.481c2.068-3.16,3.188-6.757,3.225-10.584c0.02-2.089,0.716-2.77,2.954-2.538
		c9.781,1.012,18.221-2.082,25.181-8.989c7.376-7.32,9.338-18.516,4.643-27.862c-1.333-2.654-0.737-3.327,1.697-4.309
		c34.969-14.108,70.988-24.815,107.644-33.497c2.018-0.478,2.608-0.034,2.726,2.112c1.491,27.038-6.349,51.415-21.114,73.747
		c-15.703,23.753-36.744,41.909-60.717,56.84c-31.951,19.9-66.764,32.604-103.417,40.499c-26.149,5.632-52.612,8.503-79.378,8.961
		c-53.102,0.908-104.623-7.062-154.058-26.915c-28.528-11.457-54.876-26.59-77.693-47.421
		c-18.904-17.258-33.987-37.215-42.509-61.63c-5.476-15.688-7.65-31.827-5.893-48.418
		C113.091,213.746,113.226,213.463,113.349,213.05z"/>
	<path fill="#FEFEFE" d="M315.861,133.652c-7.423,7.986-14.55,15.655-21.68,23.323c-2.264,2.435-4.557,4.842-6.793,7.302
		c-5.277,5.807-4.946,12.55,0.913,17.83c5.402,4.869,12.144,6.533,19.039,7.78c13.901,2.515,26.24-0.95,37.527-9.31
		c9.097-6.737,17.642-14.215,27.209-20.319c6.668-4.254,13.421-8.314,21.408-9.665c7.425-1.256,14.191,0.651,20.618,4.211
		c9.521,5.273,17.638,12.45,25.934,19.354c30.67,25.522,60.764,51.718,90.909,77.855c3.17,2.749,5.504,5.941,6.316,10.079
		c1.756,8.953-5.335,17.255-15.56,18.296c-5.775,0.588-10.718-0.94-15.125-4.962c-12.356-11.274-24.898-22.345-37.381-33.48
		c-1.469-1.31-2.955-2.622-4.789-3.437c-1.334-0.593-2.651-0.646-3.775,0.393c-1.254,1.16-1.114,2.6-0.544,4.031
		c0.554,1.392,1.672,2.358,2.7,3.385c11.322,11.322,22.648,22.639,33.963,33.968c4.417,4.422,7.266,9.321,5.043,15.899
		c-4.252,12.583-22.492,17.002-31.912,7.826c-9.228-8.988-18.218-18.235-28.093-26.54c-1.425-1.199-2.807-2.527-4.769-2.783
		c-1.142-0.149-2.309-0.165-3.133,0.894c-0.867,1.115-0.906,2.336-0.219,3.497c0.629,1.062,1.357,2.089,2.177,3.01
		c8.361,9.389,16.776,18.73,25.12,28.135c4.806,5.417,4.659,10.345-0.588,15.254c-5.596,5.236-12.276,6.03-19.456,4.17
		c-1.582-0.41-2.651-1.561-3.752-2.673c-7.603-7.684-15.353-15.214-23.635-22.172c-1.182-0.993-2.462-1.952-3.85-2.595
		c-1.36-0.629-2.848-0.544-3.976,0.774c-1.061,1.241-0.787,2.531-0.079,3.761c0.513,0.891,1.135,1.741,1.825,2.503
		c6.623,7.316,13.263,14.616,19.914,21.906c2.864,3.139,2.735,4.42-1.138,6.343c-5.6,2.782-11.532,3.23-17.609,1.913
		c-4.484-0.972-8.7-2.692-12.885-4.544c-1.608-0.712-1.77-1.416-1.2-2.995c7.187-19.928-4.036-39.693-24.716-43.8
		c-2.167-0.43-5.136,0.821-6.319-1.11c-0.985-1.609-0.183-4.253-0.363-6.423c-1.145-13.776-10.888-23.758-24.943-25.814
		c-4.507-0.659-8.926-0.552-13.245,0.807c-1.43,0.45-1.985,0.101-2.668-1.074c-7.776-13.37-28.486-17.956-42.165-9.696
		c-1.864,1.126-2.925,1.229-4.598-0.461c-10.165-10.267-25.697-10.943-37.034-1.761c-0.99,0.801-1.655,1.55-3.145,0.557
		c-16.58-11.043-35.146-17.639-53.864-23.887c-19.808-6.612-40.242-10.882-60.386-16.238c-6.083-1.618-6.056-1.663-4.464-7.621
		c6.123-22.909,18.35-42.292,34.321-59.526c6.015-6.492,12.627-12.329,19.307-18.113c1.887-1.633,3.384-1.625,5.533-0.777
		c24.066,9.497,48.707,17.108,73.988,22.686c17.341,3.825,34.378,3.339,51.264-2.324
		C305.73,135.726,310.559,134.559,315.861,133.652z"/>
	<path fill="#FEFEFE" d="M405.506,108.675c11.059,0.126,28.967,4.808,45.947,12.73c22.514,10.504,45.946,16.792,70.842,16.976
		c23.456,0.174,45.909-4.962,67.64-13.539c3.569-1.409,7.112-2.892,10.6-4.488c1.311-0.6,2.195-0.569,3.317,0.403
		c21.388,18.517,38.538,40.04,47.831,67.163c1.514,4.42,2.585,8.961,3.729,13.488c0.551,2.181,0.073,2.883-1.995,3.335
		c-18.043,3.943-35.827,8.855-53.439,14.404c-20.477,6.452-40.65,13.725-60.302,22.386c-2.107,0.928-3.398,0.642-5.153-0.879
		c-31.949-27.691-63.744-55.565-96.479-82.335c-5.067-4.144-10.369-7.967-15.763-11.683c-15.647-10.779-31.578-10.54-47.765-1.453
		c-10.836,6.083-20.047,14.417-29.908,21.852c-3.149,2.375-6.378,4.649-9.635,6.873c-9.666,6.601-20.242,7.396-31.32,4.765
		c-1.005-0.239-1.996-0.574-2.954-0.963c-6.634-2.695-7.002-4.203-2.115-9.396c11.175-11.872,21.792-24.293,34.058-35.099
		C352.441,115.773,371.365,108.676,405.506,108.675z"/>
	<path fill="#FDE600" d="M593.008,111.879c-13.843,5.975-27.584,10.446-41.89,13.138c-33.31,6.268-64.872,0.867-95.381-13.437
		c-21.138-9.91-43.47-15.1-67.023-13.373c-21.001,1.539-40.157,8.083-56.687,21.488c-0.878,0.712-1.693,1.494-2.971,1.531
		c-11.305,0.322-22.24,2.857-32.889,6.338c-16.927,5.532-33.611,4.351-50.55,0.032c-21.19-5.403-42.149-11.472-62.748-19.037
		c0.518-1.557,1.928-1.966,2.981-2.681c30.115-20.43,63.256-33.939,98.374-42.896c39.32-10.029,79.293-13.684,119.777-11.944
		c37.102,1.595,73.4,7.807,108.648,19.68c27.776,9.356,53.924,21.973,77.733,39.208
		C591.136,110.471,591.875,111.035,593.008,111.879z"/>
	<path fill="#FEFEFE" d="M273.762,265.643c1.416-0.935,1.892-2.221,2.617-3.274c6.241-9.062,16.745-13.003,26.996-10.063
		c6.972,2,11.01,6.687,12.424,13.727c0.163,0.813,0.234,1.645,0.398,2.458c0.572,2.834,2.105,3.404,4.287,1.396
		c6.312-5.808,13.404-6.413,21.114-3.43c8.589,3.324,12.723,10.877,11.38,20.828c-0.375,2.782-0.974,5.506-1.924,8.163
		c-0.537,1.503-1.567,3.175-0.06,4.645c1.514,1.477,3.149,0.321,4.642-0.195c4.684-1.619,9.34-2.573,14.304-1.099
		c11.097,3.295,17.971,13.646,16.263,24.737c-1.695,11.006-11.401,18.836-23.027,18.577c-10.906-0.244-19.724-8.813-21.017-20.453
		c-0.181-1.625,0.173-3.566-1.839-4.23c-1.747-0.576-2.88,0.829-4.014,1.867c-5.851,5.353-12.288,5.334-19.032,2.042
		c-6.864-3.351-11.456-8.223-10.638-16.543c0.115-1.174,0.125-2.38-1.023-3.056c-1.139-0.67-2.187-0.015-3.191,0.542
		c-15.079,8.374-31.079-0.795-31.634-18.157c-0.059-1.86,0.14-3.733,0.288-5.595c0.097-1.218-0.045-2.328-1.176-2.988
		c-1.284-0.749-1.831,0.504-2.567,1.115c-9.716,8.071-23.909,3.947-27.689-8.056c-2.903-9.219,2.648-18.945,12.273-21.503
		c9.085-2.415,18.763,3.407,20.819,12.566C273.158,261.545,273.394,263.467,273.762,265.643z"/>
	<path fill="#313162" stroke="#313162" stroke-width="5" stroke-miterlimit="10" d="M113.349,213.05
		c-0.124,0.413-0.258,0.696-0.29,0.991c-1.758,16.592,0.417,32.73,5.893,48.418c8.522,24.415,23.606,44.372,42.509,61.63
		c22.817,20.83,49.165,35.964,77.693,47.421c49.435,19.853,100.956,27.823,154.058,26.915c26.766-0.458,53.229-3.329,79.378-8.961
		c36.652-7.895,71.466-20.598,103.417-40.499c23.973-14.931,45.014-33.088,60.717-56.84c14.764-22.332,22.604-46.709,21.114-73.747
		c-0.118-2.146-0.708-2.59-2.726-2.112c-36.656,8.681-72.675,19.388-107.644,33.497c-2.434,0.982-3.03,1.655-1.697,4.309
		c4.695,9.346,2.734,20.542-4.643,27.862c-6.96,6.906-15.4,10-25.181,8.989c-2.238-0.231-2.933,0.449-2.954,2.538
		c-0.037,3.827-1.157,7.424-3.225,10.584c-6.617,10.11-16.056,15.509-28.141,15.481c-3.828-0.009-5.689,0.446-7.395,4.474
		c-5.05,11.922-20.146,18.921-32.942,16.085c-1.071-0.237-2.063-0.964-3.036,0.355c-6.706,9.094-16.357,10.594-26.652,9.991
		c-7.895-0.462-15.138-3.343-22.082-6.952c-1.399-0.727-2.262-0.712-3.522,0.35c-17.153,14.461-40.337,10.001-50.775-9.761
		c-0.7-1.325-1.249-1.673-2.762-1.325c-12.428,2.856-22.736-1.353-30.452-10.855c-3.214-3.957-5.564-7.188-11.05-5.476
		c-0.188,0.059-0.414,0.012-0.621-0.005c-13.177-1.081-24.54-10.308-28.349-23.148c-0.551-1.857-1.232-2.563-3.357-2.365
		c-19.553,1.816-34.967-17.254-28.405-35.968c0.499-1.423,0.262-2.219-0.999-3.055c-3.551-2.354-7.217-4.499-11.032-6.382
		C184.983,229.094,149.125,221.279,113.349,213.05z M315.861,133.652c-5.302,0.907-10.131,2.074-14.823,3.647
		c-16.885,5.662-33.923,6.149-51.264,2.324c-25.281-5.577-49.922-13.189-73.988-22.686c-2.148-0.848-3.646-0.856-5.533,0.777
		c-6.681,5.784-13.292,11.621-19.307,18.113c-15.971,17.235-28.198,36.617-34.321,59.526c-1.592,5.957-1.619,6.003,4.464,7.621
		c20.144,5.356,40.579,9.627,60.386,16.238c18.718,6.248,37.284,12.844,53.864,23.887c1.49,0.992,2.155,0.244,3.145-0.557
		c11.337-9.181,26.869-8.506,37.034,1.761c1.673,1.69,2.733,1.587,4.598,0.461c13.679-8.261,34.389-3.674,42.165,9.696
		c0.683,1.175,1.239,1.523,2.668,1.074c4.32-1.359,8.738-1.466,13.245-0.807c14.055,2.056,23.798,12.038,24.943,25.814
		c0.18,2.17-0.622,4.814,0.363,6.423c1.183,1.932,4.152,0.68,6.319,1.11c20.68,4.107,31.903,23.872,24.716,43.8
		c-0.569,1.579-0.408,2.283,1.2,2.995c4.185,1.852,8.401,3.572,12.885,4.544c6.077,1.317,12.009,0.869,17.609-1.913
		c3.873-1.924,4.002-3.204,1.138-6.343c-6.651-7.29-13.292-14.59-19.914-21.906c-0.69-0.763-1.313-1.613-1.825-2.503
		c-0.708-1.23-0.981-2.52,0.079-3.761c1.127-1.319,2.615-1.404,3.976-0.774c1.388,0.642,2.668,1.602,3.85,2.595
		c8.282,6.958,16.032,14.488,23.635,22.172c1.1,1.112,2.17,2.263,3.752,2.673c7.18,1.86,13.86,1.066,19.456-4.17
		c5.247-4.909,5.393-9.838,0.588-15.254c-8.344-9.405-16.759-18.746-25.12-28.135c-0.82-0.921-1.548-1.948-2.177-3.01
		c-0.687-1.161-0.648-2.382,0.219-3.497c0.824-1.059,1.991-1.043,3.133-0.894c1.961,0.256,3.344,1.584,4.769,2.783
		c9.875,8.305,18.865,17.552,28.093,26.54c9.42,9.176,27.66,4.757,31.912-7.826c2.223-6.578-0.626-11.476-5.043-15.899
		c-11.315-11.329-22.641-22.646-33.963-33.968c-1.027-1.027-2.145-1.993-2.7-3.385c-0.57-1.431-0.71-2.871,0.544-4.031
		c1.124-1.04,2.44-0.986,3.775-0.393c1.834,0.814,3.32,2.126,4.789,3.437c12.483,11.135,25.025,22.205,37.381,33.48
		c4.407,4.021,9.35,5.55,15.125,4.962c10.225-1.041,17.316-9.344,15.56-18.296c-0.812-4.139-3.146-7.331-6.316-10.079
		c-30.145-26.137-60.239-52.333-90.909-77.855c-8.296-6.904-16.413-14.081-25.934-19.354c-6.427-3.56-13.193-5.467-20.618-4.211
		c-7.987,1.352-14.74,5.411-21.408,9.665c-9.567,6.104-18.112,13.582-27.209,20.319c-11.287,8.359-23.626,11.824-37.527,9.31
		c-6.895-1.247-13.637-2.912-19.039-7.78c-5.859-5.28-6.19-12.023-0.913-17.83c2.236-2.46,4.529-4.867,6.793-7.302
		C301.311,149.308,308.439,141.638,315.861,133.652z M405.506,108.675c-34.141,0.001-53.065,7.098-72.866,24.541
		c-12.266,10.805-22.883,23.227-34.058,35.099c-4.888,5.193-4.52,6.701,2.115,9.396c0.958,0.389,1.949,0.724,2.954,0.963
		c11.078,2.632,21.655,1.836,31.32-4.765c3.258-2.225,6.486-4.498,9.635-6.873c9.86-7.435,19.071-15.768,29.908-21.852
		c16.186-9.087,32.118-9.326,47.765,1.453c5.394,3.716,10.696,7.54,15.763,11.683c32.735,26.769,64.53,54.644,96.479,82.335
		c1.755,1.521,3.047,1.808,5.153,0.879c19.653-8.661,39.826-15.934,60.302-22.386c17.613-5.55,35.396-10.462,53.439-14.404
		c2.068-0.452,2.546-1.154,1.995-3.335c-1.144-4.527-2.214-9.069-3.729-13.488c-9.292-27.122-26.443-48.646-47.831-67.163
		c-1.123-0.972-2.006-1.003-3.317-0.403c-3.488,1.596-7.032,3.079-10.6,4.488c-21.73,8.577-44.184,13.713-67.64,13.539
		c-24.896-0.184-48.328-6.473-70.842-16.976C434.473,113.483,416.565,108.801,405.506,108.675z M593.008,111.879
		c-1.133-0.844-1.872-1.408-2.625-1.953c-23.81-17.235-49.957-29.852-77.733-39.208c-35.247-11.873-71.545-18.086-108.648-19.68
		c-40.483-1.74-80.457,1.915-119.777,11.944c-35.118,8.957-68.259,22.466-98.374,42.896c-1.054,0.715-2.464,1.124-2.981,2.681
		c20.598,7.565,41.557,13.634,62.748,19.037c16.939,4.319,33.624,5.5,50.55-0.032c10.65-3.481,21.584-6.016,32.889-6.338
		c1.277-0.036,2.093-0.819,2.971-1.531c16.53-13.404,35.686-19.949,56.687-21.488c23.553-1.726,45.885,3.463,67.023,13.373
		c30.509,14.303,62.071,19.705,95.381,13.437C565.424,122.324,579.165,117.854,593.008,111.879z M273.762,265.643
		c-0.368-2.176-0.603-4.098-1.025-5.978c-2.056-9.159-11.734-14.981-20.819-12.566c-9.625,2.558-15.176,12.284-12.273,21.503
		c3.78,12.003,17.973,16.127,27.689,8.056c0.735-0.611,1.283-1.864,2.567-1.115c1.131,0.659,1.273,1.77,1.176,2.988
		c-0.148,1.862-0.347,3.734-0.288,5.595c0.554,17.362,16.555,26.531,31.634,18.157c1.004-0.557,2.052-1.212,3.191-0.542
		c1.148,0.675,1.138,1.882,1.023,3.056c-0.818,8.32,3.774,13.192,10.638,16.543c6.744,3.293,13.181,3.311,19.032-2.042
		c1.134-1.037,2.268-2.443,4.014-1.867c2.013,0.664,1.659,2.605,1.839,4.23c1.293,11.64,10.112,20.209,21.017,20.453
		c11.626,0.26,21.332-7.571,23.027-18.577c1.708-11.091-5.167-21.442-16.263-24.737c-4.965-1.474-9.621-0.52-14.304,1.099
		c-1.493,0.516-3.128,1.672-4.642,0.195c-1.507-1.47-0.477-3.142,0.06-4.645c0.95-2.657,1.549-5.38,1.924-8.163
		c1.343-9.951-2.791-17.504-11.38-20.828c-7.71-2.984-14.802-2.379-21.114,3.43c-2.182,2.008-3.715,1.439-4.287-1.396
		c-0.164-0.813-0.235-1.645-0.398-2.458c-1.415-7.04-5.452-11.728-12.424-13.727c-10.251-2.94-20.755,1.001-26.996,10.063
		C275.653,263.422,275.177,264.708,273.762,265.643z M387.335,431.244c-47.641-0.243-92.274-5.809-135.487-20.494
		c-35.168-11.951-67.443-29.037-94.84-54.49c-25.727-23.902-44.391-52.289-51.627-86.977c-6.845-32.814-6.554-65.432,7.618-96.754
		c10.921-24.138,27.536-43.865,47.652-60.777c30.843-25.931,66.378-43.006,104.653-54.713c34.14-10.443,69.118-15.83,104.797-17.019
		c55.119-1.837,108.695,5.853,160.268,25.778c32.426,12.527,62.257,29.498,87.776,53.397c22.726,21.283,39.77,46.139,47.361,76.806
		c3.483,14.072,3.743,28.391,3.352,42.741c-1.176,43.08-18.072,79.44-47.717,110.164c-27.632,28.638-61.399,47.446-98.572,60.6
		c-27.517,9.736-55.897,15.635-84.887,18.831C420.212,430.262,402.693,431.005,387.335,431.244z"/>
</g>
</svg>
