<?xml version="1.0" encoding="utf-8"?>
<!-- Generator: Adobe Illustrator 19.0.0, SVG Export Plug-In . SVG Version: 6.00 Build 0)  -->
<svg version="1.1" id="Layer_1" xmlns:sketch="http://www.bohemiancoding.com/sketch/ns"
	 xmlns="http://www.w3.org/2000/svg" xmlns:xlink="http://www.w3.org/1999/xlink" x="0px" y="0px" viewBox="84 146 780 501"
	 style="enable-background:new 84 146 780 501;" xml:space="preserve">
<style type="text/css">
	.st0{fill:#00958F;}
	.st1{fill:#FEC325;}
</style>
<title>amex-outline</title>
<desc>Created with Sketch.</desc>
<path class="st0" d="M319,183.6c0-3.1,0.8-4,3.9-4c102.9,0.1,205.8,0.1,308.8,0c3,0,3.6,0.9,3.6,3.7c-0.1,85.2-0.1,170.4-0.1,255.6
	c0,0.9-0.3,1.8-0.4,2.8c-50.8-49.1-101.7-98.1-153.3-147.9c0,103.2,0,205.1,0,307c-0.3,0-0.6,0-0.9,0l-10.7-10.6l-148-141
	c-2.5-2.4-3.5-4.7-3.5-8.2"/>
<path class="st1" d="M481.6,600.8c0-101.9,0-203.8,0-307c51.6,49.8,102.4,98.8,153.3,147.9c-1.1,2.9-3.6,4.7-5.7,6.9
	C581.1,498.4,533,548.2,484.9,598c-0.9,0.9-1.6,1.9-2.4,2.9C482.2,600.8,481.9,600.8,481.6,600.8z"/>
</svg>
